<svg width="1363" height="163" viewBox="0 0 1363 163" fill="none" xmlns="http://www.w3.org/2000/svg">
<path d="M0 15C0 6.71573 6.71573 0 15 0H37V163H15C6.71573 163 0 156.284 0 148V15Z" fill="#424242"/>
<rect width="1097" height="163" transform="translate(37)" fill="#F0F0F0"/>
<path d="M101.906 53.9219L94.3945 51.2383V48.0859L104.602 52.375V54.6367L101.906 53.9219ZM94.3945 56.1719L101.918 53.4297L104.602 52.7852V55.0352L94.3945 59.3242V56.1719ZM119.836 46.8555L115.195 61H111.457L117.797 43.9375H120.176L119.836 46.8555ZM123.691 61L119.039 46.8555L118.664 43.9375H121.066L127.441 61H123.691ZM123.48 54.6484V57.4023H114.469V54.6484H123.48ZM131.742 51.0273V61H128.367V48.3203H131.531L131.742 51.0273ZM131.25 54.2148H130.336C130.336 53.2773 130.457 52.4336 130.699 51.6836C130.941 50.9258 131.281 50.2812 131.719 49.75C132.156 49.2109 132.676 48.8008 133.277 48.5195C133.887 48.2305 134.566 48.0859 135.316 48.0859C135.91 48.0859 136.453 48.1719 136.945 48.3438C137.438 48.5156 137.859 48.7891 138.211 49.1641C138.57 49.5391 138.844 50.0352 139.031 50.6523C139.227 51.2695 139.324 52.0234 139.324 52.9141V61H135.926V52.9023C135.926 52.3398 135.848 51.9023 135.691 51.5898C135.535 51.2773 135.305 51.0586 135 50.9336C134.703 50.8008 134.336 50.7344 133.898 50.7344C133.445 50.7344 133.051 50.8242 132.715 51.0039C132.387 51.1836 132.113 51.4336 131.895 51.7539C131.684 52.0664 131.523 52.4336 131.414 52.8555C131.305 53.2773 131.25 53.7305 131.25 54.2148ZM145.453 48.3203V61H142.066V48.3203H145.453ZM141.855 45.0156C141.855 44.5234 142.027 44.1172 142.371 43.7969C142.715 43.4766 143.176 43.3164 143.754 43.3164C144.324 43.3164 144.781 43.4766 145.125 43.7969C145.477 44.1172 145.652 44.5234 145.652 45.0156C145.652 45.5078 145.477 45.9141 145.125 46.2344C144.781 46.5547 144.324 46.7148 143.754 46.7148C143.176 46.7148 142.715 46.5547 142.371 46.2344C142.027 45.9141 141.855 45.5078 141.855 45.0156ZM151.617 50.9453V61H148.23V48.3203H151.406L151.617 50.9453ZM151.148 54.2148H150.211C150.211 53.332 150.316 52.5195 150.527 51.7773C150.746 51.0273 151.062 50.3789 151.477 49.832C151.898 49.2773 152.418 48.8477 153.035 48.543C153.652 48.2383 154.367 48.0859 155.18 48.0859C155.742 48.0859 156.258 48.1719 156.727 48.3438C157.195 48.5078 157.598 48.7695 157.934 49.1289C158.277 49.4805 158.543 49.9414 158.73 50.5117C158.918 51.0742 159.012 51.75 159.012 52.5391V61H155.637V52.9141C155.637 52.3359 155.559 51.8906 155.402 51.5781C155.246 51.2656 155.023 51.0469 154.734 50.9219C154.453 50.7969 154.113 50.7344 153.715 50.7344C153.277 50.7344 152.895 50.8242 152.566 51.0039C152.246 51.1836 151.98 51.4336 151.77 51.7539C151.559 52.0664 151.402 52.4336 151.301 52.8555C151.199 53.2773 151.148 53.7305 151.148 54.2148ZM158.695 53.8281L157.488 53.9805C157.488 53.1523 157.59 52.3828 157.793 51.6719C158.004 50.9609 158.312 50.3359 158.719 49.7969C159.133 49.2578 159.645 48.8398 160.254 48.543C160.863 48.2383 161.566 48.0859 162.363 48.0859C162.973 48.0859 163.527 48.1758 164.027 48.3555C164.527 48.5273 164.953 48.8047 165.305 49.1875C165.664 49.5625 165.938 50.0547 166.125 50.6641C166.32 51.2734 166.418 52.0195 166.418 52.9023V61H163.031V52.9023C163.031 52.3164 162.953 51.8711 162.797 51.5664C162.648 51.2539 162.43 51.0391 162.141 50.9219C161.859 50.7969 161.523 50.7344 161.133 50.7344C160.727 50.7344 160.371 50.8164 160.066 50.9805C159.762 51.1367 159.508 51.3555 159.305 51.6367C159.102 51.918 158.949 52.2461 158.848 52.6211C158.746 52.9883 158.695 53.3906 158.695 53.8281ZM175.875 58.1406V52.4922C175.875 52.0859 175.809 51.7383 175.676 51.4492C175.543 51.1523 175.336 50.9219 175.055 50.7578C174.781 50.5938 174.426 50.5117 173.988 50.5117C173.613 50.5117 173.289 50.5781 173.016 50.7109C172.742 50.8359 172.531 51.0195 172.383 51.2617C172.234 51.4961 172.16 51.7734 172.16 52.0938H168.785C168.785 51.5547 168.91 51.043 169.16 50.5586C169.41 50.0742 169.773 49.6484 170.25 49.2812C170.727 48.9062 171.293 48.6133 171.949 48.4023C172.613 48.1914 173.355 48.0859 174.176 48.0859C175.16 48.0859 176.035 48.25 176.801 48.5781C177.566 48.9062 178.168 49.3984 178.605 50.0547C179.051 50.7109 179.273 51.5312 179.273 52.5156V57.9414C179.273 58.6367 179.316 59.207 179.402 59.6523C179.488 60.0898 179.613 60.4727 179.777 60.8008V61H176.367C176.203 60.6562 176.078 60.2266 175.992 59.7109C175.914 59.1875 175.875 58.6641 175.875 58.1406ZM176.32 53.2773L176.344 55.1875H174.457C174.012 55.1875 173.625 55.2383 173.297 55.3398C172.969 55.4414 172.699 55.5859 172.488 55.7734C172.277 55.9531 172.121 56.1641 172.02 56.4062C171.926 56.6484 171.879 56.9141 171.879 57.2031C171.879 57.4922 171.945 57.7539 172.078 57.9883C172.211 58.2148 172.402 58.3945 172.652 58.5273C172.902 58.6523 173.195 58.7148 173.531 58.7148C174.039 58.7148 174.48 58.6133 174.855 58.4102C175.23 58.207 175.52 57.957 175.723 57.6602C175.934 57.3633 176.043 57.082 176.051 56.8164L176.941 58.2461C176.816 58.5664 176.645 58.8984 176.426 59.2422C176.215 59.5859 175.945 59.9102 175.617 60.2148C175.289 60.5117 174.895 60.7578 174.434 60.9531C173.973 61.1406 173.426 61.2344 172.793 61.2344C171.988 61.2344 171.258 61.0742 170.602 60.7539C169.953 60.4258 169.438 59.9766 169.055 59.4062C168.68 58.8281 168.492 58.1719 168.492 57.4375C168.492 56.7734 168.617 56.1836 168.867 55.668C169.117 55.1523 169.484 54.7188 169.969 54.3672C170.461 54.0078 171.074 53.7383 171.809 53.5586C172.543 53.3711 173.395 53.2773 174.363 53.2773H176.32ZM185.438 43V61H182.051V43H185.438ZM198.152 43.9375V61H194.648V43.9375H198.152ZM204.539 51.0273V61H201.164V48.3203H204.328L204.539 51.0273ZM204.047 54.2148H203.133C203.133 53.2773 203.254 52.4336 203.496 51.6836C203.738 50.9258 204.078 50.2812 204.516 49.75C204.953 49.2109 205.473 48.8008 206.074 48.5195C206.684 48.2305 207.363 48.0859 208.113 48.0859C208.707 48.0859 209.25 48.1719 209.742 48.3438C210.234 48.5156 210.656 48.7891 211.008 49.1641C211.367 49.5391 211.641 50.0352 211.828 50.6523C212.023 51.2695 212.121 52.0234 212.121 52.9141V61H208.723V52.9023C208.723 52.3398 208.645 51.9023 208.488 51.5898C208.332 51.2773 208.102 51.0586 207.797 50.9336C207.5 50.8008 207.133 50.7344 206.695 50.7344C206.242 50.7344 205.848 50.8242 205.512 51.0039C205.184 51.1836 204.91 51.4336 204.691 51.7539C204.48 52.0664 204.32 52.4336 204.211 52.8555C204.102 53.2773 204.047 53.7305 204.047 54.2148ZM220.898 48.3203V50.7109H213.516V48.3203H220.898ZM215.344 45.1914H218.719V57.1797C218.719 57.5469 218.766 57.8281 218.859 58.0234C218.961 58.2188 219.109 58.3555 219.305 58.4336C219.5 58.5039 219.746 58.5391 220.043 58.5391C220.254 58.5391 220.441 58.5312 220.605 58.5156C220.777 58.4922 220.922 58.4688 221.039 58.4453L221.051 60.9297C220.762 61.0234 220.449 61.0977 220.113 61.1523C219.777 61.207 219.406 61.2344 219 61.2344C218.258 61.2344 217.609 61.1133 217.055 60.8711C216.508 60.6211 216.086 60.2227 215.789 59.6758C215.492 59.1289 215.344 58.4102 215.344 57.5195V45.1914ZM229.664 58.1406V52.4922C229.664 52.0859 229.598 51.7383 229.465 51.4492C229.332 51.1523 229.125 50.9219 228.844 50.7578C228.57 50.5938 228.215 50.5117 227.777 50.5117C227.402 50.5117 227.078 50.5781 226.805 50.7109C226.531 50.8359 226.32 51.0195 226.172 51.2617C226.023 51.4961 225.949 51.7734 225.949 52.0938H222.574C222.574 51.5547 222.699 51.043 222.949 50.5586C223.199 50.0742 223.562 49.6484 224.039 49.2812C224.516 48.9062 225.082 48.6133 225.738 48.4023C226.402 48.1914 227.145 48.0859 227.965 48.0859C228.949 48.0859 229.824 48.25 230.59 48.5781C231.355 48.9062 231.957 49.3984 232.395 50.0547C232.84 50.7109 233.062 51.5312 233.062 52.5156V57.9414C233.062 58.6367 233.105 59.207 233.191 59.6523C233.277 60.0898 233.402 60.4727 233.566 60.8008V61H230.156C229.992 60.6562 229.867 60.2266 229.781 59.7109C229.703 59.1875 229.664 58.6641 229.664 58.1406ZM230.109 53.2773L230.133 55.1875H228.246C227.801 55.1875 227.414 55.2383 227.086 55.3398C226.758 55.4414 226.488 55.5859 226.277 55.7734C226.066 55.9531 225.91 56.1641 225.809 56.4062C225.715 56.6484 225.668 56.9141 225.668 57.2031C225.668 57.4922 225.734 57.7539 225.867 57.9883C226 58.2148 226.191 58.3945 226.441 58.5273C226.691 58.6523 226.984 58.7148 227.32 58.7148C227.828 58.7148 228.27 58.6133 228.645 58.4102C229.02 58.207 229.309 57.957 229.512 57.6602C229.723 57.3633 229.832 57.082 229.84 56.8164L230.73 58.2461C230.605 58.5664 230.434 58.8984 230.215 59.2422C230.004 59.5859 229.734 59.9102 229.406 60.2148C229.078 60.5117 228.684 60.7578 228.223 60.9531C227.762 61.1406 227.215 61.2344 226.582 61.2344C225.777 61.2344 225.047 61.0742 224.391 60.7539C223.742 60.4258 223.227 59.9766 222.844 59.4062C222.469 58.8281 222.281 58.1719 222.281 57.4375C222.281 56.7734 222.406 56.1836 222.656 55.668C222.906 55.1523 223.273 54.7188 223.758 54.3672C224.25 54.0078 224.863 53.7383 225.598 53.5586C226.332 53.3711 227.184 53.2773 228.152 53.2773H230.109ZM239.039 42.9883V61H235.664V42.9883H239.039ZM247.031 48.3203L241.523 54.6016L238.57 57.5898L237.34 55.1523L239.684 52.1758L242.977 48.3203H247.031ZM243.527 61L239.777 55.1406L242.109 53.1016L247.418 61H243.527ZM254.086 61.2344C253.102 61.2344 252.219 61.0781 251.438 60.7656C250.656 60.4453 249.992 60.0039 249.445 59.4414C248.906 58.8789 248.492 58.2266 248.203 57.4844C247.914 56.7344 247.77 55.9375 247.77 55.0938V54.625C247.77 53.6641 247.906 52.7852 248.18 51.9883C248.453 51.1914 248.844 50.5 249.352 49.9141C249.867 49.3281 250.492 48.8789 251.227 48.5664C251.961 48.2461 252.789 48.0859 253.711 48.0859C254.609 48.0859 255.406 48.2344 256.102 48.5312C256.797 48.8281 257.379 49.25 257.848 49.7969C258.324 50.3438 258.684 51 258.926 51.7656C259.168 52.5234 259.289 53.3672 259.289 54.2969V55.7031H249.211V53.4531H255.973V53.1953C255.973 52.7266 255.887 52.3086 255.715 51.9414C255.551 51.5664 255.301 51.2695 254.965 51.0508C254.629 50.832 254.199 50.7227 253.676 50.7227C253.23 50.7227 252.848 50.8203 252.527 51.0156C252.207 51.2109 251.945 51.4844 251.742 51.8359C251.547 52.1875 251.398 52.6016 251.297 53.0781C251.203 53.5469 251.156 54.0625 251.156 54.625V55.0938C251.156 55.6016 251.227 56.0703 251.367 56.5C251.516 56.9297 251.723 57.3008 251.988 57.6133C252.262 57.9258 252.59 58.168 252.973 58.3398C253.363 58.5117 253.805 58.5977 254.297 58.5977C254.906 58.5977 255.473 58.4805 255.996 58.2461C256.527 58.0039 256.984 57.6406 257.367 57.1562L259.008 58.9375C258.742 59.3203 258.379 59.6875 257.918 60.0391C257.465 60.3906 256.918 60.6797 256.277 60.9062C255.637 61.125 254.906 61.2344 254.086 61.2344ZM268.066 57.4961C268.066 57.2539 267.996 57.0352 267.855 56.8398C267.715 56.6445 267.453 56.4648 267.07 56.3008C266.695 56.1289 266.152 55.9727 265.441 55.832C264.801 55.6914 264.203 55.5156 263.648 55.3047C263.102 55.0859 262.625 54.8242 262.219 54.5195C261.82 54.2148 261.508 53.8555 261.281 53.4414C261.055 53.0195 260.941 52.5391 260.941 52C260.941 51.4688 261.055 50.9688 261.281 50.5C261.516 50.0312 261.848 49.6172 262.277 49.2578C262.715 48.8906 263.246 48.6055 263.871 48.4023C264.504 48.1914 265.215 48.0859 266.004 48.0859C267.105 48.0859 268.051 48.2617 268.84 48.6133C269.637 48.9648 270.246 49.4492 270.668 50.0664C271.098 50.6758 271.312 51.3711 271.312 52.1523H267.938C267.938 51.8242 267.867 51.5312 267.727 51.2734C267.594 51.0078 267.383 50.8008 267.094 50.6523C266.812 50.4961 266.445 50.418 265.992 50.418C265.617 50.418 265.293 50.4844 265.02 50.6172C264.746 50.7422 264.535 50.9141 264.387 51.1328C264.246 51.3438 264.176 51.5781 264.176 51.8359C264.176 52.0312 264.215 52.207 264.293 52.3633C264.379 52.5117 264.516 52.6484 264.703 52.7734C264.891 52.8984 265.133 53.0156 265.43 53.125C265.734 53.2266 266.109 53.3203 266.555 53.4062C267.469 53.5938 268.285 53.8398 269.004 54.1445C269.723 54.4414 270.293 54.8477 270.715 55.3633C271.137 55.8711 271.348 56.5391 271.348 57.3672C271.348 57.9297 271.223 58.4453 270.973 58.9141C270.723 59.3828 270.363 59.793 269.895 60.1445C269.426 60.4883 268.863 60.7578 268.207 60.9531C267.559 61.1406 266.828 61.2344 266.016 61.2344C264.836 61.2344 263.836 61.0234 263.016 60.6016C262.203 60.1797 261.586 59.6445 261.164 58.9961C260.75 58.3398 260.543 57.668 260.543 56.9805H263.742C263.758 57.4414 263.875 57.8125 264.094 58.0938C264.32 58.375 264.605 58.5781 264.949 58.7031C265.301 58.8281 265.68 58.8906 266.086 58.8906C266.523 58.8906 266.887 58.832 267.176 58.7148C267.465 58.5898 267.684 58.4258 267.832 58.2227C267.988 58.0117 268.066 57.7695 268.066 57.4961ZM286.359 58.1406V52.4922C286.359 52.0859 286.293 51.7383 286.16 51.4492C286.027 51.1523 285.82 50.9219 285.539 50.7578C285.266 50.5938 284.91 50.5117 284.473 50.5117C284.098 50.5117 283.773 50.5781 283.5 50.7109C283.227 50.8359 283.016 51.0195 282.867 51.2617C282.719 51.4961 282.645 51.7734 282.645 52.0938H279.27C279.27 51.5547 279.395 51.043 279.645 50.5586C279.895 50.0742 280.258 49.6484 280.734 49.2812C281.211 48.9062 281.777 48.6133 282.434 48.4023C283.098 48.1914 283.84 48.0859 284.66 48.0859C285.645 48.0859 286.52 48.25 287.285 48.5781C288.051 48.9062 288.652 49.3984 289.09 50.0547C289.535 50.7109 289.758 51.5312 289.758 52.5156V57.9414C289.758 58.6367 289.801 59.207 289.887 59.6523C289.973 60.0898 290.098 60.4727 290.262 60.8008V61H286.852C286.688 60.6562 286.562 60.2266 286.477 59.7109C286.398 59.1875 286.359 58.6641 286.359 58.1406ZM286.805 53.2773L286.828 55.1875H284.941C284.496 55.1875 284.109 55.2383 283.781 55.3398C283.453 55.4414 283.184 55.5859 282.973 55.7734C282.762 55.9531 282.605 56.1641 282.504 56.4062C282.41 56.6484 282.363 56.9141 282.363 57.2031C282.363 57.4922 282.43 57.7539 282.562 57.9883C282.695 58.2148 282.887 58.3945 283.137 58.5273C283.387 58.6523 283.68 58.7148 284.016 58.7148C284.523 58.7148 284.965 58.6133 285.34 58.4102C285.715 58.207 286.004 57.957 286.207 57.6602C286.418 57.3633 286.527 57.082 286.535 56.8164L287.426 58.2461C287.301 58.5664 287.129 58.8984 286.91 59.2422C286.699 59.5859 286.43 59.9102 286.102 60.2148C285.773 60.5117 285.379 60.7578 284.918 60.9531C284.457 61.1406 283.91 61.2344 283.277 61.2344C282.473 61.2344 281.742 61.0742 281.086 60.7539C280.438 60.4258 279.922 59.9766 279.539 59.4062C279.164 58.8281 278.977 58.1719 278.977 57.4375C278.977 56.7734 279.102 56.1836 279.352 55.668C279.602 55.1523 279.969 54.7188 280.453 54.3672C280.945 54.0078 281.559 53.7383 282.293 53.5586C283.027 53.3711 283.879 53.2773 284.848 53.2773H286.805ZM295.664 51.0273V61H292.289V48.3203H295.453L295.664 51.0273ZM295.172 54.2148H294.258C294.258 53.2773 294.379 52.4336 294.621 51.6836C294.863 50.9258 295.203 50.2812 295.641 49.75C296.078 49.2109 296.598 48.8008 297.199 48.5195C297.809 48.2305 298.488 48.0859 299.238 48.0859C299.832 48.0859 300.375 48.1719 300.867 48.3438C301.359 48.5156 301.781 48.7891 302.133 49.1641C302.492 49.5391 302.766 50.0352 302.953 50.6523C303.148 51.2695 303.246 52.0234 303.246 52.9141V61H299.848V52.9023C299.848 52.3398 299.77 51.9023 299.613 51.5898C299.457 51.2773 299.227 51.0586 298.922 50.9336C298.625 50.8008 298.258 50.7344 297.82 50.7344C297.367 50.7344 296.973 50.8242 296.637 51.0039C296.309 51.1836 296.035 51.4336 295.816 51.7539C295.605 52.0664 295.445 52.4336 295.336 52.8555C295.227 53.2773 295.172 53.7305 295.172 54.2148ZM313.301 58.2344V43H316.699V61H313.641L313.301 58.2344ZM305.285 54.8125V54.5664C305.285 53.5977 305.395 52.7188 305.613 51.9297C305.832 51.1328 306.152 50.4492 306.574 49.8789C306.996 49.3086 307.516 48.8672 308.133 48.5547C308.75 48.2422 309.453 48.0859 310.242 48.0859C310.984 48.0859 311.633 48.2422 312.188 48.5547C312.75 48.8672 313.227 49.3125 313.617 49.8906C314.016 50.4609 314.336 51.1367 314.578 51.918C314.82 52.6914 314.996 53.5391 315.105 54.4609V55C314.996 55.8828 314.82 56.7031 314.578 57.4609C314.336 58.2188 314.016 58.8828 313.617 59.4531C313.227 60.0156 312.75 60.4531 312.188 60.7656C311.625 61.0781 310.969 61.2344 310.219 61.2344C309.43 61.2344 308.727 61.0742 308.109 60.7539C307.5 60.4336 306.984 59.9844 306.562 59.4062C306.148 58.8281 305.832 58.1484 305.613 57.3672C305.395 56.5859 305.285 55.7344 305.285 54.8125ZM308.66 54.5664V54.8125C308.66 55.3359 308.699 55.8242 308.777 56.2773C308.863 56.7305 309 57.1328 309.188 57.4844C309.383 57.8281 309.633 58.0977 309.938 58.293C310.25 58.4805 310.629 58.5742 311.074 58.5742C311.652 58.5742 312.129 58.4453 312.504 58.1875C312.879 57.9219 313.164 57.5586 313.359 57.0977C313.562 56.6367 313.68 56.1055 313.711 55.5039V53.9688C313.688 53.4766 313.617 53.0352 313.5 52.6445C313.391 52.2461 313.227 51.9062 313.008 51.625C312.797 51.3438 312.531 51.125 312.211 50.9688C311.898 50.8125 311.527 50.7344 311.098 50.7344C310.66 50.7344 310.285 50.8359 309.973 51.0391C309.66 51.2344 309.406 51.5039 309.211 51.8477C309.023 52.1914 308.883 52.5977 308.789 53.0664C308.703 53.5273 308.66 54.0273 308.66 54.5664ZM339.539 52.0703V52.8789C339.539 54.1758 339.363 55.3398 339.012 56.3711C338.66 57.4023 338.164 58.2812 337.523 59.0078C336.883 59.7266 336.117 60.2773 335.227 60.6602C334.344 61.043 333.363 61.2344 332.285 61.2344C331.215 61.2344 330.234 61.043 329.344 60.6602C328.461 60.2773 327.695 59.7266 327.047 59.0078C326.398 58.2812 325.895 57.4023 325.535 56.3711C325.184 55.3398 325.008 54.1758 325.008 52.8789V52.0703C325.008 50.7656 325.184 49.6016 325.535 48.5781C325.887 47.5469 326.383 46.668 327.023 45.9414C327.672 45.2148 328.438 44.6602 329.32 44.2773C330.211 43.8945 331.191 43.7031 332.262 43.7031C333.34 43.7031 334.32 43.8945 335.203 44.2773C336.094 44.6602 336.859 45.2148 337.5 45.9414C338.148 46.668 338.648 47.5469 339 48.5781C339.359 49.6016 339.539 50.7656 339.539 52.0703ZM335.988 52.8789V52.0469C335.988 51.1406 335.906 50.3438 335.742 49.6562C335.578 48.9688 335.336 48.3906 335.016 47.9219C334.695 47.4531 334.305 47.1016 333.844 46.8672C333.383 46.625 332.855 46.5039 332.262 46.5039C331.668 46.5039 331.141 46.625 330.68 46.8672C330.227 47.1016 329.84 47.4531 329.52 47.9219C329.207 48.3906 328.969 48.9688 328.805 49.6562C328.641 50.3438 328.559 51.1406 328.559 52.0469V52.8789C328.559 53.7773 328.641 54.5742 328.805 55.2695C328.969 55.957 329.211 56.5391 329.531 57.0156C329.852 57.4844 330.242 57.8398 330.703 58.082C331.164 58.3242 331.691 58.4453 332.285 58.4453C332.879 58.4453 333.406 58.3242 333.867 58.082C334.328 57.8398 334.715 57.4844 335.027 57.0156C335.34 56.5391 335.578 55.957 335.742 55.2695C335.906 54.5742 335.988 53.7773 335.988 52.8789ZM349.359 57.9648V48.3203H352.734V61H349.559L349.359 57.9648ZM349.734 55.3633L350.73 55.3398C350.73 56.1836 350.633 56.9688 350.438 57.6953C350.242 58.4141 349.949 59.0391 349.559 59.5703C349.168 60.0938 348.676 60.5039 348.082 60.8008C347.488 61.0898 346.789 61.2344 345.984 61.2344C345.367 61.2344 344.797 61.1484 344.273 60.9766C343.758 60.7969 343.312 60.5195 342.938 60.1445C342.57 59.7617 342.281 59.2734 342.07 58.6797C341.867 58.0781 341.766 57.3555 341.766 56.5117V48.3203H345.141V56.5352C345.141 56.9102 345.184 57.2266 345.27 57.4844C345.363 57.7422 345.492 57.9531 345.656 58.1172C345.82 58.2812 346.012 58.3984 346.23 58.4688C346.457 58.5391 346.707 58.5742 346.98 58.5742C347.676 58.5742 348.223 58.4336 348.621 58.1523C349.027 57.8711 349.312 57.4883 349.477 57.0039C349.648 56.5117 349.734 55.9648 349.734 55.3633ZM361.523 48.3203V50.7109H354.141V48.3203H361.523ZM355.969 45.1914H359.344V57.1797C359.344 57.5469 359.391 57.8281 359.484 58.0234C359.586 58.2188 359.734 58.3555 359.93 58.4336C360.125 58.5039 360.371 58.5391 360.668 58.5391C360.879 58.5391 361.066 58.5312 361.23 58.5156C361.402 58.4922 361.547 58.4688 361.664 58.4453L361.676 60.9297C361.387 61.0234 361.074 61.0977 360.738 61.1523C360.402 61.207 360.031 61.2344 359.625 61.2344C358.883 61.2344 358.234 61.1133 357.68 60.8711C357.133 60.6211 356.711 60.2227 356.414 59.6758C356.117 59.1289 355.969 58.4102 355.969 57.5195V45.1914ZM368.684 58.5977C369.098 58.5977 369.465 58.5195 369.785 58.3633C370.105 58.1992 370.355 57.9727 370.535 57.6836C370.723 57.3867 370.82 57.0391 370.828 56.6406H374.004C373.996 57.5312 373.758 58.3242 373.289 59.0195C372.82 59.707 372.191 60.25 371.402 60.6484C370.613 61.0391 369.73 61.2344 368.754 61.2344C367.77 61.2344 366.91 61.0703 366.176 60.7422C365.449 60.4141 364.844 59.9609 364.359 59.3828C363.875 58.7969 363.512 58.1172 363.27 57.3438C363.027 56.5625 362.906 55.7266 362.906 54.8359V54.4961C362.906 53.5977 363.027 52.7617 363.27 51.9883C363.512 51.207 363.875 50.5273 364.359 49.9492C364.844 49.3633 365.449 48.9062 366.176 48.5781C366.902 48.25 367.754 48.0859 368.73 48.0859C369.77 48.0859 370.68 48.2852 371.461 48.6836C372.25 49.082 372.867 49.6523 373.312 50.3945C373.766 51.1289 373.996 52 374.004 53.0078H370.828C370.82 52.5859 370.73 52.2031 370.559 51.8594C370.395 51.5156 370.152 51.2422 369.832 51.0391C369.52 50.8281 369.133 50.7227 368.672 50.7227C368.18 50.7227 367.777 50.8281 367.465 51.0391C367.152 51.2422 366.91 51.5234 366.738 51.8828C366.566 52.2344 366.445 52.6367 366.375 53.0898C366.312 53.5352 366.281 54.0039 366.281 54.4961V54.8359C366.281 55.3281 366.312 55.8008 366.375 56.2539C366.438 56.707 366.555 57.1094 366.727 57.4609C366.906 57.8125 367.152 58.0898 367.465 58.293C367.777 58.4961 368.184 58.5977 368.684 58.5977ZM375.422 54.7891V54.543C375.422 53.6133 375.555 52.7578 375.82 51.9766C376.086 51.1875 376.473 50.5039 376.98 49.9258C377.488 49.3477 378.113 48.8984 378.855 48.5781C379.598 48.25 380.449 48.0859 381.41 48.0859C382.371 48.0859 383.227 48.25 383.977 48.5781C384.727 48.8984 385.355 49.3477 385.863 49.9258C386.379 50.5039 386.77 51.1875 387.035 51.9766C387.301 52.7578 387.434 53.6133 387.434 54.543V54.7891C387.434 55.7109 387.301 56.5664 387.035 57.3555C386.77 58.1367 386.379 58.8203 385.863 59.4062C385.355 59.9844 384.73 60.4336 383.988 60.7539C383.246 61.0742 382.395 61.2344 381.434 61.2344C380.473 61.2344 379.617 61.0742 378.867 60.7539C378.125 60.4336 377.496 59.9844 376.98 59.4062C376.473 58.8203 376.086 58.1367 375.82 57.3555C375.555 56.5664 375.422 55.7109 375.422 54.7891ZM378.797 54.543V54.7891C378.797 55.3203 378.844 55.8164 378.938 56.2773C379.031 56.7383 379.18 57.1445 379.383 57.4961C379.594 57.8398 379.867 58.1094 380.203 58.3047C380.539 58.5 380.949 58.5977 381.434 58.5977C381.902 58.5977 382.305 58.5 382.641 58.3047C382.977 58.1094 383.246 57.8398 383.449 57.4961C383.652 57.1445 383.801 56.7383 383.895 56.2773C383.996 55.8164 384.047 55.3203 384.047 54.7891V54.543C384.047 54.0273 383.996 53.543 383.895 53.0898C383.801 52.6289 383.648 52.2227 383.438 51.8711C383.234 51.5117 382.965 51.2305 382.629 51.0273C382.293 50.8242 381.887 50.7227 381.41 50.7227C380.934 50.7227 380.527 50.8242 380.191 51.0273C379.863 51.2305 379.594 51.5117 379.383 51.8711C379.18 52.2227 379.031 52.6289 378.938 53.0898C378.844 53.543 378.797 54.0273 378.797 54.543ZM392.883 50.9453V61H389.496V48.3203H392.672L392.883 50.9453ZM392.414 54.2148H391.477C391.477 53.332 391.582 52.5195 391.793 51.7773C392.012 51.0273 392.328 50.3789 392.742 49.832C393.164 49.2773 393.684 48.8477 394.301 48.543C394.918 48.2383 395.633 48.0859 396.445 48.0859C397.008 48.0859 397.523 48.1719 397.992 48.3438C398.461 48.5078 398.863 48.7695 399.199 49.1289C399.543 49.4805 399.809 49.9414 399.996 50.5117C400.184 51.0742 400.277 51.75 400.277 52.5391V61H396.902V52.9141C396.902 52.3359 396.824 51.8906 396.668 51.5781C396.512 51.2656 396.289 51.0469 396 50.9219C395.719 50.7969 395.379 50.7344 394.98 50.7344C394.543 50.7344 394.16 50.8242 393.832 51.0039C393.512 51.1836 393.246 51.4336 393.035 51.7539C392.824 52.0664 392.668 52.4336 392.566 52.8555C392.465 53.2773 392.414 53.7305 392.414 54.2148ZM399.961 53.8281L398.754 53.9805C398.754 53.1523 398.855 52.3828 399.059 51.6719C399.27 50.9609 399.578 50.3359 399.984 49.7969C400.398 49.2578 400.91 48.8398 401.52 48.543C402.129 48.2383 402.832 48.0859 403.629 48.0859C404.238 48.0859 404.793 48.1758 405.293 48.3555C405.793 48.5273 406.219 48.8047 406.57 49.1875C406.93 49.5625 407.203 50.0547 407.391 50.6641C407.586 51.2734 407.684 52.0195 407.684 52.9023V61H404.297V52.9023C404.297 52.3164 404.219 51.8711 404.062 51.5664C403.914 51.2539 403.695 51.0391 403.406 50.9219C403.125 50.7969 402.789 50.7344 402.398 50.7344C401.992 50.7344 401.637 50.8164 401.332 50.9805C401.027 51.1367 400.773 51.3555 400.57 51.6367C400.367 51.918 400.215 52.2461 400.113 52.6211C400.012 52.9883 399.961 53.3906 399.961 53.8281ZM416.133 61.2344C415.148 61.2344 414.266 61.0781 413.484 60.7656C412.703 60.4453 412.039 60.0039 411.492 59.4414C410.953 58.8789 410.539 58.2266 410.25 57.4844C409.961 56.7344 409.816 55.9375 409.816 55.0938V54.625C409.816 53.6641 409.953 52.7852 410.227 51.9883C410.5 51.1914 410.891 50.5 411.398 49.9141C411.914 49.3281 412.539 48.8789 413.273 48.5664C414.008 48.2461 414.836 48.0859 415.758 48.0859C416.656 48.0859 417.453 48.2344 418.148 48.5312C418.844 48.8281 419.426 49.25 419.895 49.7969C420.371 50.3438 420.73 51 420.973 51.7656C421.215 52.5234 421.336 53.3672 421.336 54.2969V55.7031H411.258V53.4531H418.02V53.1953C418.02 52.7266 417.934 52.3086 417.762 51.9414C417.598 51.5664 417.348 51.2695 417.012 51.0508C416.676 50.832 416.246 50.7227 415.723 50.7227C415.277 50.7227 414.895 50.8203 414.574 51.0156C414.254 51.2109 413.992 51.4844 413.789 51.8359C413.594 52.1875 413.445 52.6016 413.344 53.0781C413.25 53.5469 413.203 54.0625 413.203 54.625V55.0938C413.203 55.6016 413.273 56.0703 413.414 56.5C413.562 56.9297 413.77 57.3008 414.035 57.6133C414.309 57.9258 414.637 58.168 415.02 58.3398C415.41 58.5117 415.852 58.5977 416.344 58.5977C416.953 58.5977 417.52 58.4805 418.043 58.2461C418.574 58.0039 419.031 57.6406 419.414 57.1562L421.055 58.9375C420.789 59.3203 420.426 59.6875 419.965 60.0391C419.512 60.3906 418.965 60.6797 418.324 60.9062C417.684 61.125 416.953 61.2344 416.133 61.2344ZM430.113 57.4961C430.113 57.2539 430.043 57.0352 429.902 56.8398C429.762 56.6445 429.5 56.4648 429.117 56.3008C428.742 56.1289 428.199 55.9727 427.488 55.832C426.848 55.6914 426.25 55.5156 425.695 55.3047C425.148 55.0859 424.672 54.8242 424.266 54.5195C423.867 54.2148 423.555 53.8555 423.328 53.4414C423.102 53.0195 422.988 52.5391 422.988 52C422.988 51.4688 423.102 50.9688 423.328 50.5C423.562 50.0312 423.895 49.6172 424.324 49.2578C424.762 48.8906 425.293 48.6055 425.918 48.4023C426.551 48.1914 427.262 48.0859 428.051 48.0859C429.152 48.0859 430.098 48.2617 430.887 48.6133C431.684 48.9648 432.293 49.4492 432.715 50.0664C433.145 50.6758 433.359 51.3711 433.359 52.1523H429.984C429.984 51.8242 429.914 51.5312 429.773 51.2734C429.641 51.0078 429.43 50.8008 429.141 50.6523C428.859 50.4961 428.492 50.418 428.039 50.418C427.664 50.418 427.34 50.4844 427.066 50.6172C426.793 50.7422 426.582 50.9141 426.434 51.1328C426.293 51.3438 426.223 51.5781 426.223 51.8359C426.223 52.0312 426.262 52.207 426.34 52.3633C426.426 52.5117 426.562 52.6484 426.75 52.7734C426.938 52.8984 427.18 53.0156 427.477 53.125C427.781 53.2266 428.156 53.3203 428.602 53.4062C429.516 53.5938 430.332 53.8398 431.051 54.1445C431.77 54.4414 432.34 54.8477 432.762 55.3633C433.184 55.8711 433.395 56.5391 433.395 57.3672C433.395 57.9297 433.27 58.4453 433.02 58.9141C432.77 59.3828 432.41 59.793 431.941 60.1445C431.473 60.4883 430.91 60.7578 430.254 60.9531C429.605 61.1406 428.875 61.2344 428.062 61.2344C426.883 61.2344 425.883 61.0234 425.062 60.6016C424.25 60.1797 423.633 59.6445 423.211 58.9961C422.797 58.3398 422.59 57.668 422.59 56.9805H425.789C425.805 57.4414 425.922 57.8125 426.141 58.0938C426.367 58.375 426.652 58.5781 426.996 58.7031C427.348 58.8281 427.727 58.8906 428.133 58.8906C428.57 58.8906 428.934 58.832 429.223 58.7148C429.512 58.5898 429.73 58.4258 429.879 58.2227C430.035 58.0117 430.113 57.7695 430.113 57.4961ZM448.711 46.8555L444.07 61H440.332L446.672 43.9375H449.051L448.711 46.8555ZM452.566 61L447.914 46.8555L447.539 43.9375H449.941L456.316 61H452.566ZM452.355 54.6484V57.4023H443.344V54.6484H452.355ZM460.617 51.0273V61H457.242V48.3203H460.406L460.617 51.0273ZM460.125 54.2148H459.211C459.211 53.2773 459.332 52.4336 459.574 51.6836C459.816 50.9258 460.156 50.2812 460.594 49.75C461.031 49.2109 461.551 48.8008 462.152 48.5195C462.762 48.2305 463.441 48.0859 464.191 48.0859C464.785 48.0859 465.328 48.1719 465.82 48.3438C466.312 48.5156 466.734 48.7891 467.086 49.1641C467.445 49.5391 467.719 50.0352 467.906 50.6523C468.102 51.2695 468.199 52.0234 468.199 52.9141V61H464.801V52.9023C464.801 52.3398 464.723 51.9023 464.566 51.5898C464.41 51.2773 464.18 51.0586 463.875 50.9336C463.578 50.8008 463.211 50.7344 462.773 50.7344C462.32 50.7344 461.926 50.8242 461.59 51.0039C461.262 51.1836 460.988 51.4336 460.77 51.7539C460.559 52.0664 460.398 52.4336 460.289 52.8555C460.18 53.2773 460.125 53.7305 460.125 54.2148ZM477.609 58.1406V52.4922C477.609 52.0859 477.543 51.7383 477.41 51.4492C477.277 51.1523 477.07 50.9219 476.789 50.7578C476.516 50.5938 476.16 50.5117 475.723 50.5117C475.348 50.5117 475.023 50.5781 474.75 50.7109C474.477 50.8359 474.266 51.0195 474.117 51.2617C473.969 51.4961 473.895 51.7734 473.895 52.0938H470.52C470.52 51.5547 470.645 51.043 470.895 50.5586C471.145 50.0742 471.508 49.6484 471.984 49.2812C472.461 48.9062 473.027 48.6133 473.684 48.4023C474.348 48.1914 475.09 48.0859 475.91 48.0859C476.895 48.0859 477.77 48.25 478.535 48.5781C479.301 48.9062 479.902 49.3984 480.34 50.0547C480.785 50.7109 481.008 51.5312 481.008 52.5156V57.9414C481.008 58.6367 481.051 59.207 481.137 59.6523C481.223 60.0898 481.348 60.4727 481.512 60.8008V61H478.102C477.938 60.6562 477.812 60.2266 477.727 59.7109C477.648 59.1875 477.609 58.6641 477.609 58.1406ZM478.055 53.2773L478.078 55.1875H476.191C475.746 55.1875 475.359 55.2383 475.031 55.3398C474.703 55.4414 474.434 55.5859 474.223 55.7734C474.012 55.9531 473.855 56.1641 473.754 56.4062C473.66 56.6484 473.613 56.9141 473.613 57.2031C473.613 57.4922 473.68 57.7539 473.812 57.9883C473.945 58.2148 474.137 58.3945 474.387 58.5273C474.637 58.6523 474.93 58.7148 475.266 58.7148C475.773 58.7148 476.215 58.6133 476.59 58.4102C476.965 58.207 477.254 57.957 477.457 57.6602C477.668 57.3633 477.777 57.082 477.785 56.8164L478.676 58.2461C478.551 58.5664 478.379 58.8984 478.16 59.2422C477.949 59.5859 477.68 59.9102 477.352 60.2148C477.023 60.5117 476.629 60.7578 476.168 60.9531C475.707 61.1406 475.16 61.2344 474.527 61.2344C473.723 61.2344 472.992 61.0742 472.336 60.7539C471.688 60.4258 471.172 59.9766 470.789 59.4062C470.414 58.8281 470.227 58.1719 470.227 57.4375C470.227 56.7734 470.352 56.1836 470.602 55.668C470.852 55.1523 471.219 54.7188 471.703 54.3672C472.195 54.0078 472.809 53.7383 473.543 53.5586C474.277 53.3711 475.129 53.2773 476.098 53.2773H478.055ZM487.172 43V61H483.785V43H487.172ZM493.723 59.5703L497.086 48.3203H500.707L495.609 62.9102C495.5 63.2305 495.352 63.5742 495.164 63.9414C494.984 64.3086 494.738 64.6562 494.426 64.9844C494.121 65.3203 493.734 65.5938 493.266 65.8047C492.805 66.0156 492.238 66.1211 491.566 66.1211C491.246 66.1211 490.984 66.1016 490.781 66.0625C490.578 66.0234 490.336 65.9688 490.055 65.8984V63.4258C490.141 63.4258 490.23 63.4258 490.324 63.4258C490.418 63.4336 490.508 63.4375 490.594 63.4375C491.039 63.4375 491.402 63.3867 491.684 63.2852C491.965 63.1836 492.191 63.0273 492.363 62.8164C492.535 62.6133 492.672 62.3477 492.773 62.0195L493.723 59.5703ZM492.316 48.3203L495.07 57.5078L495.551 61.082L493.254 61.3281L488.695 48.3203H492.316ZM508.91 57.4961C508.91 57.2539 508.84 57.0352 508.699 56.8398C508.559 56.6445 508.297 56.4648 507.914 56.3008C507.539 56.1289 506.996 55.9727 506.285 55.832C505.645 55.6914 505.047 55.5156 504.492 55.3047C503.945 55.0859 503.469 54.8242 503.062 54.5195C502.664 54.2148 502.352 53.8555 502.125 53.4414C501.898 53.0195 501.785 52.5391 501.785 52C501.785 51.4688 501.898 50.9688 502.125 50.5C502.359 50.0312 502.691 49.6172 503.121 49.2578C503.559 48.8906 504.09 48.6055 504.715 48.4023C505.348 48.1914 506.059 48.0859 506.848 48.0859C507.949 48.0859 508.895 48.2617 509.684 48.6133C510.48 48.9648 511.09 49.4492 511.512 50.0664C511.941 50.6758 512.156 51.3711 512.156 52.1523H508.781C508.781 51.8242 508.711 51.5312 508.57 51.2734C508.438 51.0078 508.227 50.8008 507.938 50.6523C507.656 50.4961 507.289 50.418 506.836 50.418C506.461 50.418 506.137 50.4844 505.863 50.6172C505.59 50.7422 505.379 50.9141 505.23 51.1328C505.09 51.3438 505.02 51.5781 505.02 51.8359C505.02 52.0312 505.059 52.207 505.137 52.3633C505.223 52.5117 505.359 52.6484 505.547 52.7734C505.734 52.8984 505.977 53.0156 506.273 53.125C506.578 53.2266 506.953 53.3203 507.398 53.4062C508.312 53.5938 509.129 53.8398 509.848 54.1445C510.566 54.4414 511.137 54.8477 511.559 55.3633C511.98 55.8711 512.191 56.5391 512.191 57.3672C512.191 57.9297 512.066 58.4453 511.816 58.9141C511.566 59.3828 511.207 59.793 510.738 60.1445C510.27 60.4883 509.707 60.7578 509.051 60.9531C508.402 61.1406 507.672 61.2344 506.859 61.2344C505.68 61.2344 504.68 61.0234 503.859 60.6016C503.047 60.1797 502.43 59.6445 502.008 58.9961C501.594 58.3398 501.387 57.668 501.387 56.9805H504.586C504.602 57.4414 504.719 57.8125 504.938 58.0938C505.164 58.375 505.449 58.5781 505.793 58.7031C506.145 58.8281 506.523 58.8906 506.93 58.8906C507.367 58.8906 507.73 58.832 508.02 58.7148C508.309 58.5898 508.527 58.4258 508.676 58.2227C508.832 58.0117 508.91 57.7695 508.91 57.4961ZM517.945 48.3203V61H514.559V48.3203H517.945ZM514.348 45.0156C514.348 44.5234 514.52 44.1172 514.863 43.7969C515.207 43.4766 515.668 43.3164 516.246 43.3164C516.816 43.3164 517.273 43.4766 517.617 43.7969C517.969 44.1172 518.145 44.5234 518.145 45.0156C518.145 45.5078 517.969 45.9141 517.617 46.2344C517.273 46.5547 516.816 46.7148 516.246 46.7148C515.668 46.7148 515.207 46.5547 514.863 46.2344C514.52 45.9141 514.348 45.5078 514.348 45.0156ZM527.59 57.4961C527.59 57.2539 527.52 57.0352 527.379 56.8398C527.238 56.6445 526.977 56.4648 526.594 56.3008C526.219 56.1289 525.676 55.9727 524.965 55.832C524.324 55.6914 523.727 55.5156 523.172 55.3047C522.625 55.0859 522.148 54.8242 521.742 54.5195C521.344 54.2148 521.031 53.8555 520.805 53.4414C520.578 53.0195 520.465 52.5391 520.465 52C520.465 51.4688 520.578 50.9688 520.805 50.5C521.039 50.0312 521.371 49.6172 521.801 49.2578C522.238 48.8906 522.77 48.6055 523.395 48.4023C524.027 48.1914 524.738 48.0859 525.527 48.0859C526.629 48.0859 527.574 48.2617 528.363 48.6133C529.16 48.9648 529.77 49.4492 530.191 50.0664C530.621 50.6758 530.836 51.3711 530.836 52.1523H527.461C527.461 51.8242 527.391 51.5312 527.25 51.2734C527.117 51.0078 526.906 50.8008 526.617 50.6523C526.336 50.4961 525.969 50.418 525.516 50.418C525.141 50.418 524.816 50.4844 524.543 50.6172C524.27 50.7422 524.059 50.9141 523.91 51.1328C523.77 51.3438 523.699 51.5781 523.699 51.8359C523.699 52.0312 523.738 52.207 523.816 52.3633C523.902 52.5117 524.039 52.6484 524.227 52.7734C524.414 52.8984 524.656 53.0156 524.953 53.125C525.258 53.2266 525.633 53.3203 526.078 53.4062C526.992 53.5938 527.809 53.8398 528.527 54.1445C529.246 54.4414 529.816 54.8477 530.238 55.3633C530.66 55.8711 530.871 56.5391 530.871 57.3672C530.871 57.9297 530.746 58.4453 530.496 58.9141C530.246 59.3828 529.887 59.793 529.418 60.1445C528.949 60.4883 528.387 60.7578 527.73 60.9531C527.082 61.1406 526.352 61.2344 525.539 61.2344C524.359 61.2344 523.359 61.0234 522.539 60.6016C521.727 60.1797 521.109 59.6445 520.688 58.9961C520.273 58.3398 520.066 57.668 520.066 56.9805H523.266C523.281 57.4414 523.398 57.8125 523.617 58.0938C523.844 58.375 524.129 58.5781 524.473 58.7031C524.824 58.8281 525.203 58.8906 525.609 58.8906C526.047 58.8906 526.41 58.832 526.699 58.7148C526.988 58.5898 527.207 58.4258 527.355 58.2227C527.512 58.0117 527.59 57.7695 527.59 57.4961Z" fill="#888888"/>
<path d="M104.344 84.875V119H96.1406V84.875H104.344ZM117.727 99.0078V119H109.828V93.6406H117.234L117.727 99.0078ZM116.766 105.453L114.961 105.5C114.961 103.719 115.172 102.078 115.594 100.578C116.016 99.0781 116.641 97.7734 117.469 96.6641C118.297 95.5547 119.312 94.6953 120.516 94.0859C121.734 93.4766 123.141 93.1719 124.734 93.1719C125.844 93.1719 126.852 93.3438 127.758 93.6875C128.664 94.0156 129.445 94.5391 130.102 95.2578C130.758 95.9609 131.258 96.8828 131.602 98.0234C131.961 99.1484 132.141 100.5 132.141 102.078V119H124.242V103.086C124.242 102.008 124.117 101.195 123.867 100.648C123.633 100.102 123.289 99.7344 122.836 99.5469C122.383 99.3594 121.828 99.2656 121.172 99.2656C120.484 99.2656 119.867 99.4219 119.32 99.7344C118.773 100.047 118.305 100.484 117.914 101.047C117.539 101.594 117.25 102.242 117.047 102.992C116.859 103.742 116.766 104.562 116.766 105.453ZM131.25 105.453L129.047 105.5C129.047 103.719 129.242 102.078 129.633 100.578C130.039 99.0781 130.641 97.7734 131.438 96.6641C132.25 95.5547 133.258 94.6953 134.461 94.0859C135.664 93.4766 137.062 93.1719 138.656 93.1719C139.812 93.1719 140.875 93.3438 141.844 93.6875C142.812 94.0312 143.648 94.5859 144.352 95.3516C145.055 96.1172 145.602 97.1328 145.992 98.3984C146.383 99.6484 146.578 101.195 146.578 103.039V119H138.656V103.039C138.656 101.992 138.531 101.203 138.281 100.672C138.047 100.125 137.703 99.7578 137.25 99.5703C136.797 99.3672 136.258 99.2656 135.633 99.2656C134.883 99.2656 134.234 99.4219 133.688 99.7344C133.141 100.047 132.68 100.484 132.305 101.047C131.945 101.594 131.68 102.242 131.508 102.992C131.336 103.742 131.25 104.562 131.25 105.453ZM159.07 98.5156V128.75H151.172V93.6406H158.531L159.07 98.5156ZM174.633 106.016V106.508C174.633 108.352 174.422 110.062 174 111.641C173.578 113.219 172.953 114.594 172.125 115.766C171.297 116.938 170.266 117.852 169.031 118.508C167.812 119.148 166.398 119.469 164.789 119.469C163.273 119.469 161.969 119.133 160.875 118.461C159.781 117.789 158.867 116.859 158.133 115.672C157.398 114.484 156.805 113.125 156.352 111.594C155.898 110.062 155.539 108.445 155.273 106.742V106.109C155.539 104.281 155.898 102.586 156.352 101.023C156.805 99.4453 157.398 98.0703 158.133 96.8984C158.867 95.7266 159.773 94.8125 160.852 94.1562C161.945 93.5 163.25 93.1719 164.766 93.1719C166.375 93.1719 167.789 93.4766 169.008 94.0859C170.242 94.6953 171.273 95.5703 172.102 96.7109C172.945 97.8359 173.578 99.1875 174 100.766C174.422 102.344 174.633 104.094 174.633 106.016ZM166.734 106.508V106.016C166.734 105.031 166.664 104.133 166.523 103.32C166.383 102.492 166.156 101.773 165.844 101.164C165.547 100.555 165.148 100.086 164.648 99.7578C164.148 99.4297 163.531 99.2656 162.797 99.2656C161.953 99.2656 161.242 99.3984 160.664 99.6641C160.102 99.9141 159.648 100.305 159.305 100.836C158.977 101.352 158.742 102 158.602 102.781C158.477 103.547 158.422 104.445 158.438 105.477V107.398C158.406 108.586 158.523 109.633 158.789 110.539C159.055 111.43 159.516 112.125 160.172 112.625C160.828 113.125 161.719 113.375 162.844 113.375C163.594 113.375 164.219 113.203 164.719 112.859C165.219 112.5 165.617 112.008 165.914 111.383C166.211 110.742 166.422 110.008 166.547 109.18C166.672 108.352 166.734 107.461 166.734 106.508ZM186.492 83V119H178.57V83H186.492ZM203.648 119.469C201.586 119.469 199.742 119.148 198.117 118.508C196.492 117.852 195.117 116.953 193.992 115.812C192.883 114.672 192.031 113.359 191.438 111.875C190.859 110.391 190.57 108.82 190.57 107.164V106.273C190.57 104.414 190.828 102.695 191.344 101.117C191.859 99.5234 192.625 98.1328 193.641 96.9453C194.656 95.7578 195.93 94.8359 197.461 94.1797C198.992 93.5078 200.773 93.1719 202.805 93.1719C204.602 93.1719 206.211 93.4609 207.633 94.0391C209.055 94.6172 210.258 95.4453 211.242 96.5234C212.242 97.6016 213 98.9062 213.516 100.438C214.047 101.969 214.312 103.688 214.312 105.594V108.805H193.594V103.859H206.602V103.25C206.617 102.406 206.469 101.688 206.156 101.094C205.859 100.5 205.422 100.047 204.844 99.7344C204.266 99.4219 203.562 99.2656 202.734 99.2656C201.875 99.2656 201.164 99.4531 200.602 99.8281C200.055 100.203 199.625 100.719 199.312 101.375C199.016 102.016 198.805 102.758 198.68 103.602C198.555 104.445 198.492 105.336 198.492 106.273V107.164C198.492 108.102 198.617 108.953 198.867 109.719C199.133 110.484 199.508 111.141 199.992 111.688C200.492 112.219 201.086 112.633 201.773 112.93C202.477 113.227 203.273 113.375 204.164 113.375C205.242 113.375 206.305 113.172 207.352 112.766C208.398 112.359 209.297 111.688 210.047 110.75L213.633 115.016C213.117 115.75 212.383 116.461 211.43 117.148C210.492 117.836 209.367 118.398 208.055 118.836C206.742 119.258 205.273 119.469 203.648 119.469ZM225.492 99.0078V119H217.594V93.6406H225L225.492 99.0078ZM224.531 105.453L222.727 105.5C222.727 103.719 222.938 102.078 223.359 100.578C223.781 99.0781 224.406 97.7734 225.234 96.6641C226.062 95.5547 227.078 94.6953 228.281 94.0859C229.5 93.4766 230.906 93.1719 232.5 93.1719C233.609 93.1719 234.617 93.3438 235.523 93.6875C236.43 94.0156 237.211 94.5391 237.867 95.2578C238.523 95.9609 239.023 96.8828 239.367 98.0234C239.727 99.1484 239.906 100.5 239.906 102.078V119H232.008V103.086C232.008 102.008 231.883 101.195 231.633 100.648C231.398 100.102 231.055 99.7344 230.602 99.5469C230.148 99.3594 229.594 99.2656 228.938 99.2656C228.25 99.2656 227.633 99.4219 227.086 99.7344C226.539 100.047 226.07 100.484 225.68 101.047C225.305 101.594 225.016 102.242 224.812 102.992C224.625 103.742 224.531 104.562 224.531 105.453ZM239.016 105.453L236.812 105.5C236.812 103.719 237.008 102.078 237.398 100.578C237.805 99.0781 238.406 97.7734 239.203 96.6641C240.016 95.5547 241.023 94.6953 242.227 94.0859C243.43 93.4766 244.828 93.1719 246.422 93.1719C247.578 93.1719 248.641 93.3438 249.609 93.6875C250.578 94.0312 251.414 94.5859 252.117 95.3516C252.82 96.1172 253.367 97.1328 253.758 98.3984C254.148 99.6484 254.344 101.195 254.344 103.039V119H246.422V103.039C246.422 101.992 246.297 101.203 246.047 100.672C245.812 100.125 245.469 99.7578 245.016 99.5703C244.562 99.3672 244.023 99.2656 243.398 99.2656C242.648 99.2656 242 99.4219 241.453 99.7344C240.906 100.047 240.445 100.484 240.07 101.047C239.711 101.594 239.445 102.242 239.273 102.992C239.102 103.742 239.016 104.562 239.016 105.453ZM271.148 119.469C269.086 119.469 267.242 119.148 265.617 118.508C263.992 117.852 262.617 116.953 261.492 115.812C260.383 114.672 259.531 113.359 258.938 111.875C258.359 110.391 258.07 108.82 258.07 107.164V106.273C258.07 104.414 258.328 102.695 258.844 101.117C259.359 99.5234 260.125 98.1328 261.141 96.9453C262.156 95.7578 263.43 94.8359 264.961 94.1797C266.492 93.5078 268.273 93.1719 270.305 93.1719C272.102 93.1719 273.711 93.4609 275.133 94.0391C276.555 94.6172 277.758 95.4453 278.742 96.5234C279.742 97.6016 280.5 98.9062 281.016 100.438C281.547 101.969 281.812 103.688 281.812 105.594V108.805H261.094V103.859H274.102V103.25C274.117 102.406 273.969 101.688 273.656 101.094C273.359 100.5 272.922 100.047 272.344 99.7344C271.766 99.4219 271.062 99.2656 270.234 99.2656C269.375 99.2656 268.664 99.4531 268.102 99.8281C267.555 100.203 267.125 100.719 266.812 101.375C266.516 102.016 266.305 102.758 266.18 103.602C266.055 104.445 265.992 105.336 265.992 106.273V107.164C265.992 108.102 266.117 108.953 266.367 109.719C266.633 110.484 267.008 111.141 267.492 111.688C267.992 112.219 268.586 112.633 269.273 112.93C269.977 113.227 270.773 113.375 271.664 113.375C272.742 113.375 273.805 113.172 274.852 112.766C275.898 112.359 276.797 111.688 277.547 110.75L281.133 115.016C280.617 115.75 279.883 116.461 278.93 117.148C277.992 117.836 276.867 118.398 275.555 118.836C274.242 119.258 272.773 119.469 271.148 119.469ZM292.781 99.0547V119H284.883V93.6406H292.289L292.781 99.0547ZM291.844 105.453L289.992 105.5C289.992 103.562 290.227 101.836 290.695 100.32C291.164 98.7891 291.828 97.4922 292.688 96.4297C293.547 95.3672 294.57 94.5625 295.758 94.0156C296.961 93.4531 298.297 93.1719 299.766 93.1719C300.938 93.1719 302.008 93.3438 302.977 93.6875C303.961 94.0312 304.805 94.5859 305.508 95.3516C306.227 96.1172 306.773 97.1328 307.148 98.3984C307.539 99.6484 307.734 101.195 307.734 103.039V119H299.789V103.016C299.789 102 299.648 101.227 299.367 100.695C299.086 100.148 298.68 99.7734 298.148 99.5703C297.617 99.3672 296.969 99.2656 296.203 99.2656C295.391 99.2656 294.703 99.4219 294.141 99.7344C293.578 100.047 293.125 100.484 292.781 101.047C292.453 101.594 292.211 102.242 292.055 102.992C291.914 103.742 291.844 104.562 291.844 105.453ZM325.477 93.6406V99.125H310.195V93.6406H325.477ZM313.406 87.3359H321.305V110.727C321.305 111.398 321.383 111.922 321.539 112.297C321.695 112.656 321.961 112.914 322.336 113.07C322.727 113.211 323.242 113.281 323.883 113.281C324.336 113.281 324.711 113.273 325.008 113.258C325.305 113.227 325.586 113.188 325.852 113.141V118.789C325.18 119.008 324.477 119.172 323.742 119.281C323.008 119.406 322.227 119.469 321.398 119.469C319.711 119.469 318.266 119.203 317.062 118.672C315.875 118.141 314.969 117.305 314.344 116.164C313.719 115.023 313.406 113.539 313.406 111.711V87.3359ZM341.789 112.625V102.172C341.789 101.453 341.688 100.836 341.484 100.32C341.281 99.8047 340.961 99.4062 340.523 99.125C340.086 98.8281 339.5 98.6797 338.766 98.6797C338.172 98.6797 337.664 98.7812 337.242 98.9844C336.82 99.1875 336.5 99.4922 336.281 99.8984C336.062 100.305 335.953 100.82 335.953 101.445H328.055C328.055 100.273 328.312 99.1875 328.828 98.1875C329.359 97.1719 330.109 96.2891 331.078 95.5391C332.062 94.7891 333.234 94.2109 334.594 93.8047C335.969 93.3828 337.5 93.1719 339.188 93.1719C341.203 93.1719 343 93.5078 344.578 94.1797C346.172 94.8516 347.43 95.8594 348.352 97.2031C349.273 98.5312 349.734 100.203 349.734 102.219V112.602C349.734 114.258 349.828 115.516 350.016 116.375C350.203 117.219 350.469 117.961 350.812 118.602V119H342.891C342.516 118.219 342.234 117.266 342.047 116.141C341.875 115 341.789 113.828 341.789 112.625ZM342.75 103.508L342.797 107.727H339.305C338.57 107.727 337.945 107.828 337.43 108.031C336.93 108.234 336.523 108.516 336.211 108.875C335.914 109.219 335.695 109.609 335.555 110.047C335.43 110.484 335.367 110.945 335.367 111.43C335.367 111.898 335.477 112.32 335.695 112.695C335.93 113.055 336.242 113.336 336.633 113.539C337.023 113.742 337.461 113.844 337.945 113.844C338.82 113.844 339.562 113.68 340.172 113.352C340.797 113.008 341.273 112.594 341.602 112.109C341.93 111.625 342.094 111.172 342.094 110.75L343.828 113.984C343.516 114.609 343.156 115.242 342.75 115.883C342.359 116.523 341.867 117.117 341.273 117.664C340.695 118.195 339.984 118.633 339.141 118.977C338.297 119.305 337.273 119.469 336.07 119.469C334.508 119.469 333.07 119.148 331.758 118.508C330.461 117.867 329.422 116.977 328.641 115.836C327.859 114.68 327.469 113.352 327.469 111.852C327.469 110.539 327.703 109.367 328.172 108.336C328.656 107.305 329.383 106.43 330.352 105.711C331.32 104.992 332.555 104.445 334.055 104.07C335.555 103.695 337.32 103.508 339.352 103.508H342.75ZM367.477 93.6406V99.125H352.195V93.6406H367.477ZM355.406 87.3359H363.305V110.727C363.305 111.398 363.383 111.922 363.539 112.297C363.695 112.656 363.961 112.914 364.336 113.07C364.727 113.211 365.242 113.281 365.883 113.281C366.336 113.281 366.711 113.273 367.008 113.258C367.305 113.227 367.586 113.188 367.852 113.141V118.789C367.18 119.008 366.477 119.172 365.742 119.281C365.008 119.406 364.227 119.469 363.398 119.469C361.711 119.469 360.266 119.203 359.062 118.672C357.875 118.141 356.969 117.305 356.344 116.164C355.719 115.023 355.406 113.539 355.406 111.711V87.3359ZM378.961 93.6406V119H371.039V93.6406H378.961ZM370.57 87.1016C370.57 85.9766 370.977 85.0547 371.789 84.3359C372.602 83.6172 373.656 83.2578 374.953 83.2578C376.25 83.2578 377.305 83.6172 378.117 84.3359C378.93 85.0547 379.336 85.9766 379.336 87.1016C379.336 88.2266 378.93 89.1484 378.117 89.8672C377.305 90.5859 376.25 90.9453 374.953 90.9453C373.656 90.9453 372.602 90.5859 371.789 89.8672C370.977 89.1484 370.57 88.2266 370.57 87.1016ZM382.852 106.578V106.086C382.852 104.227 383.117 102.516 383.648 100.953C384.18 99.375 384.961 98.0078 385.992 96.8516C387.023 95.6953 388.297 94.7969 389.812 94.1562C391.328 93.5 393.078 93.1719 395.062 93.1719C397.062 93.1719 398.82 93.5 400.336 94.1562C401.867 94.7969 403.148 95.6953 404.18 96.8516C405.211 98.0078 405.992 99.375 406.523 100.953C407.055 102.516 407.32 104.227 407.32 106.086V106.578C407.32 108.422 407.055 110.133 406.523 111.711C405.992 113.273 405.211 114.641 404.18 115.812C403.148 116.969 401.875 117.867 400.359 118.508C398.844 119.148 397.094 119.469 395.109 119.469C393.125 119.469 391.367 119.148 389.836 118.508C388.305 117.867 387.023 116.969 385.992 115.812C384.961 114.641 384.18 113.273 383.648 111.711C383.117 110.133 382.852 108.422 382.852 106.578ZM390.75 106.086V106.578C390.75 107.531 390.82 108.422 390.961 109.25C391.102 110.078 391.336 110.805 391.664 111.43C391.992 112.039 392.438 112.516 393 112.859C393.562 113.203 394.266 113.375 395.109 113.375C395.938 113.375 396.625 113.203 397.172 112.859C397.734 112.516 398.18 112.039 398.508 111.43C398.836 110.805 399.07 110.078 399.211 109.25C399.352 108.422 399.422 107.531 399.422 106.578V106.086C399.422 105.164 399.352 104.297 399.211 103.484C399.07 102.656 398.836 101.93 398.508 101.305C398.18 100.664 397.734 100.164 397.172 99.8047C396.609 99.4453 395.906 99.2656 395.062 99.2656C394.234 99.2656 393.539 99.4453 392.977 99.8047C392.43 100.164 391.992 100.664 391.664 101.305C391.336 101.93 391.102 102.656 390.961 103.484C390.82 104.297 390.75 105.164 390.75 106.086ZM418.594 99.0547V119H410.695V93.6406H418.102L418.594 99.0547ZM417.656 105.453L415.805 105.5C415.805 103.562 416.039 101.836 416.508 100.32C416.977 98.7891 417.641 97.4922 418.5 96.4297C419.359 95.3672 420.383 94.5625 421.57 94.0156C422.773 93.4531 424.109 93.1719 425.578 93.1719C426.75 93.1719 427.82 93.3438 428.789 93.6875C429.773 94.0312 430.617 94.5859 431.32 95.3516C432.039 96.1172 432.586 97.1328 432.961 98.3984C433.352 99.6484 433.547 101.195 433.547 103.039V119H425.602V103.016C425.602 102 425.461 101.227 425.18 100.695C424.898 100.148 424.492 99.7734 423.961 99.5703C423.43 99.3672 422.781 99.2656 422.016 99.2656C421.203 99.2656 420.516 99.4219 419.953 99.7344C419.391 100.047 418.938 100.484 418.594 101.047C418.266 101.594 418.023 102.242 417.867 102.992C417.727 103.742 417.656 104.562 417.656 105.453Z" fill="black"/>
<path d="M1134 0H1348C1356.28 0 1363 6.71573 1363 15V148C1363 156.284 1356.28 163 1348 163H1134V0Z" fill="#007A85"/>
<path d="M1281 46.5H1216L1213.5 49V114L1216 116.5H1281L1283.5 114V49L1281 46.5ZM1278.5 111.5H1233.5V101.5H1245C1246.5 104.5 1250 106.5 1253.5 106.5C1259 106.5 1263.5 102 1263.5 96.5C1263.5 91 1259 86.5 1253.5 86.5C1248 86.5 1243.5 91 1243.5 96.5H1228.5V111.5H1218.5V51.5H1228.5V63C1225.5 64.5 1223.5 68 1223.5 71.5C1223.5 77 1228 81.5 1233.5 81.5C1239 81.5 1243.5 77 1243.5 71.5H1253.5C1253.5 77 1258 81.5 1263.5 81.5C1269 81.5 1273.5 77 1273.5 71.5C1273.5 66 1269 61.5 1263.5 61.5C1260 61.5 1256.5 63.5 1255 66.5H1242C1240.5 63.5 1237 61.5 1233.5 61.5V51.5H1278.5V111.5ZM1248.5 96.5C1248.5 93.5 1250.5 91.5 1253.5 91.5C1256.5 91.5 1258.5 93.5 1258.5 96.5C1258.5 99.5 1256.5 101.5 1253.5 101.5C1250.5 101.5 1248.5 99.5 1248.5 96.5ZM1233.5 66.5C1236.5 66.5 1238.5 68.5 1238.5 71.5C1238.5 74.5 1236.5 76.5 1233.5 76.5C1230.5 76.5 1228.5 74.5 1228.5 71.5C1228.5 68.5 1230.5 66.5 1233.5 66.5ZM1263.5 66.5C1266.5 66.5 1268.5 68.5 1268.5 71.5C1268.5 74.5 1266.5 76.5 1263.5 76.5C1260.5 76.5 1258.5 74.5 1258.5 71.5C1258.5 68.5 1260.5 66.5 1263.5 66.5Z" fill="white"/>
</svg>
