<svg width="1363" height="163" viewBox="0 0 1363 163" fill="none" xmlns="http://www.w3.org/2000/svg">
<path d="M0 15C0 6.71573 6.71573 0 15 0H37V163H15C6.71573 163 0 156.284 0 148V15Z" fill="#424242"/>
<rect width="1097" height="163" transform="translate(37)" fill="#F0F0F0"/>
<path d="M101.906 53.9219L94.3945 51.2383V48.0859L104.602 52.375V54.6367L101.906 53.9219ZM94.3945 56.1719L101.918 53.4297L104.602 52.7852V55.0352L94.3945 59.3242V56.1719ZM119.836 46.8555L115.195 61H111.457L117.797 43.9375H120.176L119.836 46.8555ZM123.691 61L119.039 46.8555L118.664 43.9375H121.066L127.441 61H123.691ZM123.48 54.6484V57.4023H114.469V54.6484H123.48ZM131.742 51.0273V61H128.367V48.3203H131.531L131.742 51.0273ZM131.25 54.2148H130.336C130.336 53.2773 130.457 52.4336 130.699 51.6836C130.941 50.9258 131.281 50.2812 131.719 49.75C132.156 49.2109 132.676 48.8008 133.277 48.5195C133.887 48.2305 134.566 48.0859 135.316 48.0859C135.91 48.0859 136.453 48.1719 136.945 48.3438C137.438 48.5156 137.859 48.7891 138.211 49.1641C138.57 49.5391 138.844 50.0352 139.031 50.6523C139.227 51.2695 139.324 52.0234 139.324 52.9141V61H135.926V52.9023C135.926 52.3398 135.848 51.9023 135.691 51.5898C135.535 51.2773 135.305 51.0586 135 50.9336C134.703 50.8008 134.336 50.7344 133.898 50.7344C133.445 50.7344 133.051 50.8242 132.715 51.0039C132.387 51.1836 132.113 51.4336 131.895 51.7539C131.684 52.0664 131.523 52.4336 131.414 52.8555C131.305 53.2773 131.25 53.7305 131.25 54.2148ZM145.453 48.3203V61H142.066V48.3203H145.453ZM141.855 45.0156C141.855 44.5234 142.027 44.1172 142.371 43.7969C142.715 43.4766 143.176 43.3164 143.754 43.3164C144.324 43.3164 144.781 43.4766 145.125 43.7969C145.477 44.1172 145.652 44.5234 145.652 45.0156C145.652 45.5078 145.477 45.9141 145.125 46.2344C144.781 46.5547 144.324 46.7148 143.754 46.7148C143.176 46.7148 142.715 46.5547 142.371 46.2344C142.027 45.9141 141.855 45.5078 141.855 45.0156ZM151.617 50.9453V61H148.23V48.3203H151.406L151.617 50.9453ZM151.148 54.2148H150.211C150.211 53.332 150.316 52.5195 150.527 51.7773C150.746 51.0273 151.062 50.3789 151.477 49.832C151.898 49.2773 152.418 48.8477 153.035 48.543C153.652 48.2383 154.367 48.0859 155.18 48.0859C155.742 48.0859 156.258 48.1719 156.727 48.3438C157.195 48.5078 157.598 48.7695 157.934 49.1289C158.277 49.4805 158.543 49.9414 158.73 50.5117C158.918 51.0742 159.012 51.75 159.012 52.5391V61H155.637V52.9141C155.637 52.3359 155.559 51.8906 155.402 51.5781C155.246 51.2656 155.023 51.0469 154.734 50.9219C154.453 50.7969 154.113 50.7344 153.715 50.7344C153.277 50.7344 152.895 50.8242 152.566 51.0039C152.246 51.1836 151.98 51.4336 151.77 51.7539C151.559 52.0664 151.402 52.4336 151.301 52.8555C151.199 53.2773 151.148 53.7305 151.148 54.2148ZM158.695 53.8281L157.488 53.9805C157.488 53.1523 157.59 52.3828 157.793 51.6719C158.004 50.9609 158.312 50.3359 158.719 49.7969C159.133 49.2578 159.645 48.8398 160.254 48.543C160.863 48.2383 161.566 48.0859 162.363 48.0859C162.973 48.0859 163.527 48.1758 164.027 48.3555C164.527 48.5273 164.953 48.8047 165.305 49.1875C165.664 49.5625 165.938 50.0547 166.125 50.6641C166.32 51.2734 166.418 52.0195 166.418 52.9023V61H163.031V52.9023C163.031 52.3164 162.953 51.8711 162.797 51.5664C162.648 51.2539 162.43 51.0391 162.141 50.9219C161.859 50.7969 161.523 50.7344 161.133 50.7344C160.727 50.7344 160.371 50.8164 160.066 50.9805C159.762 51.1367 159.508 51.3555 159.305 51.6367C159.102 51.918 158.949 52.2461 158.848 52.6211C158.746 52.9883 158.695 53.3906 158.695 53.8281ZM175.875 58.1406V52.4922C175.875 52.0859 175.809 51.7383 175.676 51.4492C175.543 51.1523 175.336 50.9219 175.055 50.7578C174.781 50.5938 174.426 50.5117 173.988 50.5117C173.613 50.5117 173.289 50.5781 173.016 50.7109C172.742 50.8359 172.531 51.0195 172.383 51.2617C172.234 51.4961 172.16 51.7734 172.16 52.0938H168.785C168.785 51.5547 168.91 51.043 169.16 50.5586C169.41 50.0742 169.773 49.6484 170.25 49.2812C170.727 48.9062 171.293 48.6133 171.949 48.4023C172.613 48.1914 173.355 48.0859 174.176 48.0859C175.16 48.0859 176.035 48.25 176.801 48.5781C177.566 48.9062 178.168 49.3984 178.605 50.0547C179.051 50.7109 179.273 51.5312 179.273 52.5156V57.9414C179.273 58.6367 179.316 59.207 179.402 59.6523C179.488 60.0898 179.613 60.4727 179.777 60.8008V61H176.367C176.203 60.6562 176.078 60.2266 175.992 59.7109C175.914 59.1875 175.875 58.6641 175.875 58.1406ZM176.32 53.2773L176.344 55.1875H174.457C174.012 55.1875 173.625 55.2383 173.297 55.3398C172.969 55.4414 172.699 55.5859 172.488 55.7734C172.277 55.9531 172.121 56.1641 172.02 56.4062C171.926 56.6484 171.879 56.9141 171.879 57.2031C171.879 57.4922 171.945 57.7539 172.078 57.9883C172.211 58.2148 172.402 58.3945 172.652 58.5273C172.902 58.6523 173.195 58.7148 173.531 58.7148C174.039 58.7148 174.48 58.6133 174.855 58.4102C175.23 58.207 175.52 57.957 175.723 57.6602C175.934 57.3633 176.043 57.082 176.051 56.8164L176.941 58.2461C176.816 58.5664 176.645 58.8984 176.426 59.2422C176.215 59.5859 175.945 59.9102 175.617 60.2148C175.289 60.5117 174.895 60.7578 174.434 60.9531C173.973 61.1406 173.426 61.2344 172.793 61.2344C171.988 61.2344 171.258 61.0742 170.602 60.7539C169.953 60.4258 169.438 59.9766 169.055 59.4062C168.68 58.8281 168.492 58.1719 168.492 57.4375C168.492 56.7734 168.617 56.1836 168.867 55.668C169.117 55.1523 169.484 54.7188 169.969 54.3672C170.461 54.0078 171.074 53.7383 171.809 53.5586C172.543 53.3711 173.395 53.2773 174.363 53.2773H176.32ZM185.438 43V61H182.051V43H185.438ZM198.152 43.9375V61H194.648V43.9375H198.152ZM204.539 51.0273V61H201.164V48.3203H204.328L204.539 51.0273ZM204.047 54.2148H203.133C203.133 53.2773 203.254 52.4336 203.496 51.6836C203.738 50.9258 204.078 50.2812 204.516 49.75C204.953 49.2109 205.473 48.8008 206.074 48.5195C206.684 48.2305 207.363 48.0859 208.113 48.0859C208.707 48.0859 209.25 48.1719 209.742 48.3438C210.234 48.5156 210.656 48.7891 211.008 49.1641C211.367 49.5391 211.641 50.0352 211.828 50.6523C212.023 51.2695 212.121 52.0234 212.121 52.9141V61H208.723V52.9023C208.723 52.3398 208.645 51.9023 208.488 51.5898C208.332 51.2773 208.102 51.0586 207.797 50.9336C207.5 50.8008 207.133 50.7344 206.695 50.7344C206.242 50.7344 205.848 50.8242 205.512 51.0039C205.184 51.1836 204.91 51.4336 204.691 51.7539C204.48 52.0664 204.32 52.4336 204.211 52.8555C204.102 53.2773 204.047 53.7305 204.047 54.2148ZM220.898 48.3203V50.7109H213.516V48.3203H220.898ZM215.344 45.1914H218.719V57.1797C218.719 57.5469 218.766 57.8281 218.859 58.0234C218.961 58.2188 219.109 58.3555 219.305 58.4336C219.5 58.5039 219.746 58.5391 220.043 58.5391C220.254 58.5391 220.441 58.5312 220.605 58.5156C220.777 58.4922 220.922 58.4688 221.039 58.4453L221.051 60.9297C220.762 61.0234 220.449 61.0977 220.113 61.1523C219.777 61.207 219.406 61.2344 219 61.2344C218.258 61.2344 217.609 61.1133 217.055 60.8711C216.508 60.6211 216.086 60.2227 215.789 59.6758C215.492 59.1289 215.344 58.4102 215.344 57.5195V45.1914ZM229.664 58.1406V52.4922C229.664 52.0859 229.598 51.7383 229.465 51.4492C229.332 51.1523 229.125 50.9219 228.844 50.7578C228.57 50.5938 228.215 50.5117 227.777 50.5117C227.402 50.5117 227.078 50.5781 226.805 50.7109C226.531 50.8359 226.32 51.0195 226.172 51.2617C226.023 51.4961 225.949 51.7734 225.949 52.0938H222.574C222.574 51.5547 222.699 51.043 222.949 50.5586C223.199 50.0742 223.562 49.6484 224.039 49.2812C224.516 48.9062 225.082 48.6133 225.738 48.4023C226.402 48.1914 227.145 48.0859 227.965 48.0859C228.949 48.0859 229.824 48.25 230.59 48.5781C231.355 48.9062 231.957 49.3984 232.395 50.0547C232.84 50.7109 233.062 51.5312 233.062 52.5156V57.9414C233.062 58.6367 233.105 59.207 233.191 59.6523C233.277 60.0898 233.402 60.4727 233.566 60.8008V61H230.156C229.992 60.6562 229.867 60.2266 229.781 59.7109C229.703 59.1875 229.664 58.6641 229.664 58.1406ZM230.109 53.2773L230.133 55.1875H228.246C227.801 55.1875 227.414 55.2383 227.086 55.3398C226.758 55.4414 226.488 55.5859 226.277 55.7734C226.066 55.9531 225.91 56.1641 225.809 56.4062C225.715 56.6484 225.668 56.9141 225.668 57.2031C225.668 57.4922 225.734 57.7539 225.867 57.9883C226 58.2148 226.191 58.3945 226.441 58.5273C226.691 58.6523 226.984 58.7148 227.32 58.7148C227.828 58.7148 228.27 58.6133 228.645 58.4102C229.02 58.207 229.309 57.957 229.512 57.6602C229.723 57.3633 229.832 57.082 229.84 56.8164L230.73 58.2461C230.605 58.5664 230.434 58.8984 230.215 59.2422C230.004 59.5859 229.734 59.9102 229.406 60.2148C229.078 60.5117 228.684 60.7578 228.223 60.9531C227.762 61.1406 227.215 61.2344 226.582 61.2344C225.777 61.2344 225.047 61.0742 224.391 60.7539C223.742 60.4258 223.227 59.9766 222.844 59.4062C222.469 58.8281 222.281 58.1719 222.281 57.4375C222.281 56.7734 222.406 56.1836 222.656 55.668C222.906 55.1523 223.273 54.7188 223.758 54.3672C224.25 54.0078 224.863 53.7383 225.598 53.5586C226.332 53.3711 227.184 53.2773 228.152 53.2773H230.109ZM239.039 42.9883V61H235.664V42.9883H239.039ZM247.031 48.3203L241.523 54.6016L238.57 57.5898L237.34 55.1523L239.684 52.1758L242.977 48.3203H247.031ZM243.527 61L239.777 55.1406L242.109 53.1016L247.418 61H243.527ZM254.086 61.2344C253.102 61.2344 252.219 61.0781 251.438 60.7656C250.656 60.4453 249.992 60.0039 249.445 59.4414C248.906 58.8789 248.492 58.2266 248.203 57.4844C247.914 56.7344 247.77 55.9375 247.77 55.0938V54.625C247.77 53.6641 247.906 52.7852 248.18 51.9883C248.453 51.1914 248.844 50.5 249.352 49.9141C249.867 49.3281 250.492 48.8789 251.227 48.5664C251.961 48.2461 252.789 48.0859 253.711 48.0859C254.609 48.0859 255.406 48.2344 256.102 48.5312C256.797 48.8281 257.379 49.25 257.848 49.7969C258.324 50.3438 258.684 51 258.926 51.7656C259.168 52.5234 259.289 53.3672 259.289 54.2969V55.7031H249.211V53.4531H255.973V53.1953C255.973 52.7266 255.887 52.3086 255.715 51.9414C255.551 51.5664 255.301 51.2695 254.965 51.0508C254.629 50.832 254.199 50.7227 253.676 50.7227C253.23 50.7227 252.848 50.8203 252.527 51.0156C252.207 51.2109 251.945 51.4844 251.742 51.8359C251.547 52.1875 251.398 52.6016 251.297 53.0781C251.203 53.5469 251.156 54.0625 251.156 54.625V55.0938C251.156 55.6016 251.227 56.0703 251.367 56.5C251.516 56.9297 251.723 57.3008 251.988 57.6133C252.262 57.9258 252.59 58.168 252.973 58.3398C253.363 58.5117 253.805 58.5977 254.297 58.5977C254.906 58.5977 255.473 58.4805 255.996 58.2461C256.527 58.0039 256.984 57.6406 257.367 57.1562L259.008 58.9375C258.742 59.3203 258.379 59.6875 257.918 60.0391C257.465 60.3906 256.918 60.6797 256.277 60.9062C255.637 61.125 254.906 61.2344 254.086 61.2344ZM268.066 57.4961C268.066 57.2539 267.996 57.0352 267.855 56.8398C267.715 56.6445 267.453 56.4648 267.07 56.3008C266.695 56.1289 266.152 55.9727 265.441 55.832C264.801 55.6914 264.203 55.5156 263.648 55.3047C263.102 55.0859 262.625 54.8242 262.219 54.5195C261.82 54.2148 261.508 53.8555 261.281 53.4414C261.055 53.0195 260.941 52.5391 260.941 52C260.941 51.4688 261.055 50.9688 261.281 50.5C261.516 50.0312 261.848 49.6172 262.277 49.2578C262.715 48.8906 263.246 48.6055 263.871 48.4023C264.504 48.1914 265.215 48.0859 266.004 48.0859C267.105 48.0859 268.051 48.2617 268.84 48.6133C269.637 48.9648 270.246 49.4492 270.668 50.0664C271.098 50.6758 271.312 51.3711 271.312 52.1523H267.938C267.938 51.8242 267.867 51.5312 267.727 51.2734C267.594 51.0078 267.383 50.8008 267.094 50.6523C266.812 50.4961 266.445 50.418 265.992 50.418C265.617 50.418 265.293 50.4844 265.02 50.6172C264.746 50.7422 264.535 50.9141 264.387 51.1328C264.246 51.3438 264.176 51.5781 264.176 51.8359C264.176 52.0312 264.215 52.207 264.293 52.3633C264.379 52.5117 264.516 52.6484 264.703 52.7734C264.891 52.8984 265.133 53.0156 265.43 53.125C265.734 53.2266 266.109 53.3203 266.555 53.4062C267.469 53.5938 268.285 53.8398 269.004 54.1445C269.723 54.4414 270.293 54.8477 270.715 55.3633C271.137 55.8711 271.348 56.5391 271.348 57.3672C271.348 57.9297 271.223 58.4453 270.973 58.9141C270.723 59.3828 270.363 59.793 269.895 60.1445C269.426 60.4883 268.863 60.7578 268.207 60.9531C267.559 61.1406 266.828 61.2344 266.016 61.2344C264.836 61.2344 263.836 61.0234 263.016 60.6016C262.203 60.1797 261.586 59.6445 261.164 58.9961C260.75 58.3398 260.543 57.668 260.543 56.9805H263.742C263.758 57.4414 263.875 57.8125 264.094 58.0938C264.32 58.375 264.605 58.5781 264.949 58.7031C265.301 58.8281 265.68 58.8906 266.086 58.8906C266.523 58.8906 266.887 58.832 267.176 58.7148C267.465 58.5898 267.684 58.4258 267.832 58.2227C267.988 58.0117 268.066 57.7695 268.066 57.4961ZM286.359 58.1406V52.4922C286.359 52.0859 286.293 51.7383 286.16 51.4492C286.027 51.1523 285.82 50.9219 285.539 50.7578C285.266 50.5938 284.91 50.5117 284.473 50.5117C284.098 50.5117 283.773 50.5781 283.5 50.7109C283.227 50.8359 283.016 51.0195 282.867 51.2617C282.719 51.4961 282.645 51.7734 282.645 52.0938H279.27C279.27 51.5547 279.395 51.043 279.645 50.5586C279.895 50.0742 280.258 49.6484 280.734 49.2812C281.211 48.9062 281.777 48.6133 282.434 48.4023C283.098 48.1914 283.84 48.0859 284.66 48.0859C285.645 48.0859 286.52 48.25 287.285 48.5781C288.051 48.9062 288.652 49.3984 289.09 50.0547C289.535 50.7109 289.758 51.5312 289.758 52.5156V57.9414C289.758 58.6367 289.801 59.207 289.887 59.6523C289.973 60.0898 290.098 60.4727 290.262 60.8008V61H286.852C286.688 60.6562 286.562 60.2266 286.477 59.7109C286.398 59.1875 286.359 58.6641 286.359 58.1406ZM286.805 53.2773L286.828 55.1875H284.941C284.496 55.1875 284.109 55.2383 283.781 55.3398C283.453 55.4414 283.184 55.5859 282.973 55.7734C282.762 55.9531 282.605 56.1641 282.504 56.4062C282.41 56.6484 282.363 56.9141 282.363 57.2031C282.363 57.4922 282.43 57.7539 282.562 57.9883C282.695 58.2148 282.887 58.3945 283.137 58.5273C283.387 58.6523 283.68 58.7148 284.016 58.7148C284.523 58.7148 284.965 58.6133 285.34 58.4102C285.715 58.207 286.004 57.957 286.207 57.6602C286.418 57.3633 286.527 57.082 286.535 56.8164L287.426 58.2461C287.301 58.5664 287.129 58.8984 286.91 59.2422C286.699 59.5859 286.43 59.9102 286.102 60.2148C285.773 60.5117 285.379 60.7578 284.918 60.9531C284.457 61.1406 283.91 61.2344 283.277 61.2344C282.473 61.2344 281.742 61.0742 281.086 60.7539C280.438 60.4258 279.922 59.9766 279.539 59.4062C279.164 58.8281 278.977 58.1719 278.977 57.4375C278.977 56.7734 279.102 56.1836 279.352 55.668C279.602 55.1523 279.969 54.7188 280.453 54.3672C280.945 54.0078 281.559 53.7383 282.293 53.5586C283.027 53.3711 283.879 53.2773 284.848 53.2773H286.805ZM295.664 51.0273V61H292.289V48.3203H295.453L295.664 51.0273ZM295.172 54.2148H294.258C294.258 53.2773 294.379 52.4336 294.621 51.6836C294.863 50.9258 295.203 50.2812 295.641 49.75C296.078 49.2109 296.598 48.8008 297.199 48.5195C297.809 48.2305 298.488 48.0859 299.238 48.0859C299.832 48.0859 300.375 48.1719 300.867 48.3438C301.359 48.5156 301.781 48.7891 302.133 49.1641C302.492 49.5391 302.766 50.0352 302.953 50.6523C303.148 51.2695 303.246 52.0234 303.246 52.9141V61H299.848V52.9023C299.848 52.3398 299.77 51.9023 299.613 51.5898C299.457 51.2773 299.227 51.0586 298.922 50.9336C298.625 50.8008 298.258 50.7344 297.82 50.7344C297.367 50.7344 296.973 50.8242 296.637 51.0039C296.309 51.1836 296.035 51.4336 295.816 51.7539C295.605 52.0664 295.445 52.4336 295.336 52.8555C295.227 53.2773 295.172 53.7305 295.172 54.2148ZM313.301 58.2344V43H316.699V61H313.641L313.301 58.2344ZM305.285 54.8125V54.5664C305.285 53.5977 305.395 52.7188 305.613 51.9297C305.832 51.1328 306.152 50.4492 306.574 49.8789C306.996 49.3086 307.516 48.8672 308.133 48.5547C308.75 48.2422 309.453 48.0859 310.242 48.0859C310.984 48.0859 311.633 48.2422 312.188 48.5547C312.75 48.8672 313.227 49.3125 313.617 49.8906C314.016 50.4609 314.336 51.1367 314.578 51.918C314.82 52.6914 314.996 53.5391 315.105 54.4609V55C314.996 55.8828 314.82 56.7031 314.578 57.4609C314.336 58.2188 314.016 58.8828 313.617 59.4531C313.227 60.0156 312.75 60.4531 312.188 60.7656C311.625 61.0781 310.969 61.2344 310.219 61.2344C309.43 61.2344 308.727 61.0742 308.109 60.7539C307.5 60.4336 306.984 59.9844 306.562 59.4062C306.148 58.8281 305.832 58.1484 305.613 57.3672C305.395 56.5859 305.285 55.7344 305.285 54.8125ZM308.66 54.5664V54.8125C308.66 55.3359 308.699 55.8242 308.777 56.2773C308.863 56.7305 309 57.1328 309.188 57.4844C309.383 57.8281 309.633 58.0977 309.938 58.293C310.25 58.4805 310.629 58.5742 311.074 58.5742C311.652 58.5742 312.129 58.4453 312.504 58.1875C312.879 57.9219 313.164 57.5586 313.359 57.0977C313.562 56.6367 313.68 56.1055 313.711 55.5039V53.9688C313.688 53.4766 313.617 53.0352 313.5 52.6445C313.391 52.2461 313.227 51.9062 313.008 51.625C312.797 51.3438 312.531 51.125 312.211 50.9688C311.898 50.8125 311.527 50.7344 311.098 50.7344C310.66 50.7344 310.285 50.8359 309.973 51.0391C309.66 51.2344 309.406 51.5039 309.211 51.8477C309.023 52.1914 308.883 52.5977 308.789 53.0664C308.703 53.5273 308.66 54.0273 308.66 54.5664ZM339.539 52.0703V52.8789C339.539 54.1758 339.363 55.3398 339.012 56.3711C338.66 57.4023 338.164 58.2812 337.523 59.0078C336.883 59.7266 336.117 60.2773 335.227 60.6602C334.344 61.043 333.363 61.2344 332.285 61.2344C331.215 61.2344 330.234 61.043 329.344 60.6602C328.461 60.2773 327.695 59.7266 327.047 59.0078C326.398 58.2812 325.895 57.4023 325.535 56.3711C325.184 55.3398 325.008 54.1758 325.008 52.8789V52.0703C325.008 50.7656 325.184 49.6016 325.535 48.5781C325.887 47.5469 326.383 46.668 327.023 45.9414C327.672 45.2148 328.438 44.6602 329.32 44.2773C330.211 43.8945 331.191 43.7031 332.262 43.7031C333.34 43.7031 334.32 43.8945 335.203 44.2773C336.094 44.6602 336.859 45.2148 337.5 45.9414C338.148 46.668 338.648 47.5469 339 48.5781C339.359 49.6016 339.539 50.7656 339.539 52.0703ZM335.988 52.8789V52.0469C335.988 51.1406 335.906 50.3438 335.742 49.6562C335.578 48.9688 335.336 48.3906 335.016 47.9219C334.695 47.4531 334.305 47.1016 333.844 46.8672C333.383 46.625 332.855 46.5039 332.262 46.5039C331.668 46.5039 331.141 46.625 330.68 46.8672C330.227 47.1016 329.84 47.4531 329.52 47.9219C329.207 48.3906 328.969 48.9688 328.805 49.6562C328.641 50.3438 328.559 51.1406 328.559 52.0469V52.8789C328.559 53.7773 328.641 54.5742 328.805 55.2695C328.969 55.957 329.211 56.5391 329.531 57.0156C329.852 57.4844 330.242 57.8398 330.703 58.082C331.164 58.3242 331.691 58.4453 332.285 58.4453C332.879 58.4453 333.406 58.3242 333.867 58.082C334.328 57.8398 334.715 57.4844 335.027 57.0156C335.34 56.5391 335.578 55.957 335.742 55.2695C335.906 54.5742 335.988 53.7773 335.988 52.8789ZM349.359 57.9648V48.3203H352.734V61H349.559L349.359 57.9648ZM349.734 55.3633L350.73 55.3398C350.73 56.1836 350.633 56.9688 350.438 57.6953C350.242 58.4141 349.949 59.0391 349.559 59.5703C349.168 60.0938 348.676 60.5039 348.082 60.8008C347.488 61.0898 346.789 61.2344 345.984 61.2344C345.367 61.2344 344.797 61.1484 344.273 60.9766C343.758 60.7969 343.312 60.5195 342.938 60.1445C342.57 59.7617 342.281 59.2734 342.07 58.6797C341.867 58.0781 341.766 57.3555 341.766 56.5117V48.3203H345.141V56.5352C345.141 56.9102 345.184 57.2266 345.27 57.4844C345.363 57.7422 345.492 57.9531 345.656 58.1172C345.82 58.2812 346.012 58.3984 346.23 58.4688C346.457 58.5391 346.707 58.5742 346.98 58.5742C347.676 58.5742 348.223 58.4336 348.621 58.1523C349.027 57.8711 349.312 57.4883 349.477 57.0039C349.648 56.5117 349.734 55.9648 349.734 55.3633ZM361.523 48.3203V50.7109H354.141V48.3203H361.523ZM355.969 45.1914H359.344V57.1797C359.344 57.5469 359.391 57.8281 359.484 58.0234C359.586 58.2188 359.734 58.3555 359.93 58.4336C360.125 58.5039 360.371 58.5391 360.668 58.5391C360.879 58.5391 361.066 58.5312 361.23 58.5156C361.402 58.4922 361.547 58.4688 361.664 58.4453L361.676 60.9297C361.387 61.0234 361.074 61.0977 360.738 61.1523C360.402 61.207 360.031 61.2344 359.625 61.2344C358.883 61.2344 358.234 61.1133 357.68 60.8711C357.133 60.6211 356.711 60.2227 356.414 59.6758C356.117 59.1289 355.969 58.4102 355.969 57.5195V45.1914ZM368.684 58.5977C369.098 58.5977 369.465 58.5195 369.785 58.3633C370.105 58.1992 370.355 57.9727 370.535 57.6836C370.723 57.3867 370.82 57.0391 370.828 56.6406H374.004C373.996 57.5312 373.758 58.3242 373.289 59.0195C372.82 59.707 372.191 60.25 371.402 60.6484C370.613 61.0391 369.73 61.2344 368.754 61.2344C367.77 61.2344 366.91 61.0703 366.176 60.7422C365.449 60.4141 364.844 59.9609 364.359 59.3828C363.875 58.7969 363.512 58.1172 363.27 57.3438C363.027 56.5625 362.906 55.7266 362.906 54.8359V54.4961C362.906 53.5977 363.027 52.7617 363.27 51.9883C363.512 51.207 363.875 50.5273 364.359 49.9492C364.844 49.3633 365.449 48.9062 366.176 48.5781C366.902 48.25 367.754 48.0859 368.73 48.0859C369.77 48.0859 370.68 48.2852 371.461 48.6836C372.25 49.082 372.867 49.6523 373.312 50.3945C373.766 51.1289 373.996 52 374.004 53.0078H370.828C370.82 52.5859 370.73 52.2031 370.559 51.8594C370.395 51.5156 370.152 51.2422 369.832 51.0391C369.52 50.8281 369.133 50.7227 368.672 50.7227C368.18 50.7227 367.777 50.8281 367.465 51.0391C367.152 51.2422 366.91 51.5234 366.738 51.8828C366.566 52.2344 366.445 52.6367 366.375 53.0898C366.312 53.5352 366.281 54.0039 366.281 54.4961V54.8359C366.281 55.3281 366.312 55.8008 366.375 56.2539C366.438 56.707 366.555 57.1094 366.727 57.4609C366.906 57.8125 367.152 58.0898 367.465 58.293C367.777 58.4961 368.184 58.5977 368.684 58.5977ZM375.422 54.7891V54.543C375.422 53.6133 375.555 52.7578 375.82 51.9766C376.086 51.1875 376.473 50.5039 376.98 49.9258C377.488 49.3477 378.113 48.8984 378.855 48.5781C379.598 48.25 380.449 48.0859 381.41 48.0859C382.371 48.0859 383.227 48.25 383.977 48.5781C384.727 48.8984 385.355 49.3477 385.863 49.9258C386.379 50.5039 386.77 51.1875 387.035 51.9766C387.301 52.7578 387.434 53.6133 387.434 54.543V54.7891C387.434 55.7109 387.301 56.5664 387.035 57.3555C386.77 58.1367 386.379 58.8203 385.863 59.4062C385.355 59.9844 384.73 60.4336 383.988 60.7539C383.246 61.0742 382.395 61.2344 381.434 61.2344C380.473 61.2344 379.617 61.0742 378.867 60.7539C378.125 60.4336 377.496 59.9844 376.98 59.4062C376.473 58.8203 376.086 58.1367 375.82 57.3555C375.555 56.5664 375.422 55.7109 375.422 54.7891ZM378.797 54.543V54.7891C378.797 55.3203 378.844 55.8164 378.938 56.2773C379.031 56.7383 379.18 57.1445 379.383 57.4961C379.594 57.8398 379.867 58.1094 380.203 58.3047C380.539 58.5 380.949 58.5977 381.434 58.5977C381.902 58.5977 382.305 58.5 382.641 58.3047C382.977 58.1094 383.246 57.8398 383.449 57.4961C383.652 57.1445 383.801 56.7383 383.895 56.2773C383.996 55.8164 384.047 55.3203 384.047 54.7891V54.543C384.047 54.0273 383.996 53.543 383.895 53.0898C383.801 52.6289 383.648 52.2227 383.438 51.8711C383.234 51.5117 382.965 51.2305 382.629 51.0273C382.293 50.8242 381.887 50.7227 381.41 50.7227C380.934 50.7227 380.527 50.8242 380.191 51.0273C379.863 51.2305 379.594 51.5117 379.383 51.8711C379.18 52.2227 379.031 52.6289 378.938 53.0898C378.844 53.543 378.797 54.0273 378.797 54.543ZM392.883 50.9453V61H389.496V48.3203H392.672L392.883 50.9453ZM392.414 54.2148H391.477C391.477 53.332 391.582 52.5195 391.793 51.7773C392.012 51.0273 392.328 50.3789 392.742 49.832C393.164 49.2773 393.684 48.8477 394.301 48.543C394.918 48.2383 395.633 48.0859 396.445 48.0859C397.008 48.0859 397.523 48.1719 397.992 48.3438C398.461 48.5078 398.863 48.7695 399.199 49.1289C399.543 49.4805 399.809 49.9414 399.996 50.5117C400.184 51.0742 400.277 51.75 400.277 52.5391V61H396.902V52.9141C396.902 52.3359 396.824 51.8906 396.668 51.5781C396.512 51.2656 396.289 51.0469 396 50.9219C395.719 50.7969 395.379 50.7344 394.98 50.7344C394.543 50.7344 394.16 50.8242 393.832 51.0039C393.512 51.1836 393.246 51.4336 393.035 51.7539C392.824 52.0664 392.668 52.4336 392.566 52.8555C392.465 53.2773 392.414 53.7305 392.414 54.2148ZM399.961 53.8281L398.754 53.9805C398.754 53.1523 398.855 52.3828 399.059 51.6719C399.27 50.9609 399.578 50.3359 399.984 49.7969C400.398 49.2578 400.91 48.8398 401.52 48.543C402.129 48.2383 402.832 48.0859 403.629 48.0859C404.238 48.0859 404.793 48.1758 405.293 48.3555C405.793 48.5273 406.219 48.8047 406.57 49.1875C406.93 49.5625 407.203 50.0547 407.391 50.6641C407.586 51.2734 407.684 52.0195 407.684 52.9023V61H404.297V52.9023C404.297 52.3164 404.219 51.8711 404.062 51.5664C403.914 51.2539 403.695 51.0391 403.406 50.9219C403.125 50.7969 402.789 50.7344 402.398 50.7344C401.992 50.7344 401.637 50.8164 401.332 50.9805C401.027 51.1367 400.773 51.3555 400.57 51.6367C400.367 51.918 400.215 52.2461 400.113 52.6211C400.012 52.9883 399.961 53.3906 399.961 53.8281ZM416.133 61.2344C415.148 61.2344 414.266 61.0781 413.484 60.7656C412.703 60.4453 412.039 60.0039 411.492 59.4414C410.953 58.8789 410.539 58.2266 410.25 57.4844C409.961 56.7344 409.816 55.9375 409.816 55.0938V54.625C409.816 53.6641 409.953 52.7852 410.227 51.9883C410.5 51.1914 410.891 50.5 411.398 49.9141C411.914 49.3281 412.539 48.8789 413.273 48.5664C414.008 48.2461 414.836 48.0859 415.758 48.0859C416.656 48.0859 417.453 48.2344 418.148 48.5312C418.844 48.8281 419.426 49.25 419.895 49.7969C420.371 50.3438 420.73 51 420.973 51.7656C421.215 52.5234 421.336 53.3672 421.336 54.2969V55.7031H411.258V53.4531H418.02V53.1953C418.02 52.7266 417.934 52.3086 417.762 51.9414C417.598 51.5664 417.348 51.2695 417.012 51.0508C416.676 50.832 416.246 50.7227 415.723 50.7227C415.277 50.7227 414.895 50.8203 414.574 51.0156C414.254 51.2109 413.992 51.4844 413.789 51.8359C413.594 52.1875 413.445 52.6016 413.344 53.0781C413.25 53.5469 413.203 54.0625 413.203 54.625V55.0938C413.203 55.6016 413.273 56.0703 413.414 56.5C413.562 56.9297 413.77 57.3008 414.035 57.6133C414.309 57.9258 414.637 58.168 415.02 58.3398C415.41 58.5117 415.852 58.5977 416.344 58.5977C416.953 58.5977 417.52 58.4805 418.043 58.2461C418.574 58.0039 419.031 57.6406 419.414 57.1562L421.055 58.9375C420.789 59.3203 420.426 59.6875 419.965 60.0391C419.512 60.3906 418.965 60.6797 418.324 60.9062C417.684 61.125 416.953 61.2344 416.133 61.2344ZM430.113 57.4961C430.113 57.2539 430.043 57.0352 429.902 56.8398C429.762 56.6445 429.5 56.4648 429.117 56.3008C428.742 56.1289 428.199 55.9727 427.488 55.832C426.848 55.6914 426.25 55.5156 425.695 55.3047C425.148 55.0859 424.672 54.8242 424.266 54.5195C423.867 54.2148 423.555 53.8555 423.328 53.4414C423.102 53.0195 422.988 52.5391 422.988 52C422.988 51.4688 423.102 50.9688 423.328 50.5C423.562 50.0312 423.895 49.6172 424.324 49.2578C424.762 48.8906 425.293 48.6055 425.918 48.4023C426.551 48.1914 427.262 48.0859 428.051 48.0859C429.152 48.0859 430.098 48.2617 430.887 48.6133C431.684 48.9648 432.293 49.4492 432.715 50.0664C433.145 50.6758 433.359 51.3711 433.359 52.1523H429.984C429.984 51.8242 429.914 51.5312 429.773 51.2734C429.641 51.0078 429.43 50.8008 429.141 50.6523C428.859 50.4961 428.492 50.418 428.039 50.418C427.664 50.418 427.34 50.4844 427.066 50.6172C426.793 50.7422 426.582 50.9141 426.434 51.1328C426.293 51.3438 426.223 51.5781 426.223 51.8359C426.223 52.0312 426.262 52.207 426.34 52.3633C426.426 52.5117 426.562 52.6484 426.75 52.7734C426.938 52.8984 427.18 53.0156 427.477 53.125C427.781 53.2266 428.156 53.3203 428.602 53.4062C429.516 53.5938 430.332 53.8398 431.051 54.1445C431.77 54.4414 432.34 54.8477 432.762 55.3633C433.184 55.8711 433.395 56.5391 433.395 57.3672C433.395 57.9297 433.27 58.4453 433.02 58.9141C432.77 59.3828 432.41 59.793 431.941 60.1445C431.473 60.4883 430.91 60.7578 430.254 60.9531C429.605 61.1406 428.875 61.2344 428.062 61.2344C426.883 61.2344 425.883 61.0234 425.062 60.6016C424.25 60.1797 423.633 59.6445 423.211 58.9961C422.797 58.3398 422.59 57.668 422.59 56.9805H425.789C425.805 57.4414 425.922 57.8125 426.141 58.0938C426.367 58.375 426.652 58.5781 426.996 58.7031C427.348 58.8281 427.727 58.8906 428.133 58.8906C428.57 58.8906 428.934 58.832 429.223 58.7148C429.512 58.5898 429.73 58.4258 429.879 58.2227C430.035 58.0117 430.113 57.7695 430.113 57.4961ZM448.711 46.8555L444.07 61H440.332L446.672 43.9375H449.051L448.711 46.8555ZM452.566 61L447.914 46.8555L447.539 43.9375H449.941L456.316 61H452.566ZM452.355 54.6484V57.4023H443.344V54.6484H452.355ZM460.617 51.0273V61H457.242V48.3203H460.406L460.617 51.0273ZM460.125 54.2148H459.211C459.211 53.2773 459.332 52.4336 459.574 51.6836C459.816 50.9258 460.156 50.2812 460.594 49.75C461.031 49.2109 461.551 48.8008 462.152 48.5195C462.762 48.2305 463.441 48.0859 464.191 48.0859C464.785 48.0859 465.328 48.1719 465.82 48.3438C466.312 48.5156 466.734 48.7891 467.086 49.1641C467.445 49.5391 467.719 50.0352 467.906 50.6523C468.102 51.2695 468.199 52.0234 468.199 52.9141V61H464.801V52.9023C464.801 52.3398 464.723 51.9023 464.566 51.5898C464.41 51.2773 464.18 51.0586 463.875 50.9336C463.578 50.8008 463.211 50.7344 462.773 50.7344C462.32 50.7344 461.926 50.8242 461.59 51.0039C461.262 51.1836 460.988 51.4336 460.77 51.7539C460.559 52.0664 460.398 52.4336 460.289 52.8555C460.18 53.2773 460.125 53.7305 460.125 54.2148ZM477.609 58.1406V52.4922C477.609 52.0859 477.543 51.7383 477.41 51.4492C477.277 51.1523 477.07 50.9219 476.789 50.7578C476.516 50.5938 476.16 50.5117 475.723 50.5117C475.348 50.5117 475.023 50.5781 474.75 50.7109C474.477 50.8359 474.266 51.0195 474.117 51.2617C473.969 51.4961 473.895 51.7734 473.895 52.0938H470.52C470.52 51.5547 470.645 51.043 470.895 50.5586C471.145 50.0742 471.508 49.6484 471.984 49.2812C472.461 48.9062 473.027 48.6133 473.684 48.4023C474.348 48.1914 475.09 48.0859 475.91 48.0859C476.895 48.0859 477.77 48.25 478.535 48.5781C479.301 48.9062 479.902 49.3984 480.34 50.0547C480.785 50.7109 481.008 51.5312 481.008 52.5156V57.9414C481.008 58.6367 481.051 59.207 481.137 59.6523C481.223 60.0898 481.348 60.4727 481.512 60.8008V61H478.102C477.938 60.6562 477.812 60.2266 477.727 59.7109C477.648 59.1875 477.609 58.6641 477.609 58.1406ZM478.055 53.2773L478.078 55.1875H476.191C475.746 55.1875 475.359 55.2383 475.031 55.3398C474.703 55.4414 474.434 55.5859 474.223 55.7734C474.012 55.9531 473.855 56.1641 473.754 56.4062C473.66 56.6484 473.613 56.9141 473.613 57.2031C473.613 57.4922 473.68 57.7539 473.812 57.9883C473.945 58.2148 474.137 58.3945 474.387 58.5273C474.637 58.6523 474.93 58.7148 475.266 58.7148C475.773 58.7148 476.215 58.6133 476.59 58.4102C476.965 58.207 477.254 57.957 477.457 57.6602C477.668 57.3633 477.777 57.082 477.785 56.8164L478.676 58.2461C478.551 58.5664 478.379 58.8984 478.16 59.2422C477.949 59.5859 477.68 59.9102 477.352 60.2148C477.023 60.5117 476.629 60.7578 476.168 60.9531C475.707 61.1406 475.16 61.2344 474.527 61.2344C473.723 61.2344 472.992 61.0742 472.336 60.7539C471.688 60.4258 471.172 59.9766 470.789 59.4062C470.414 58.8281 470.227 58.1719 470.227 57.4375C470.227 56.7734 470.352 56.1836 470.602 55.668C470.852 55.1523 471.219 54.7188 471.703 54.3672C472.195 54.0078 472.809 53.7383 473.543 53.5586C474.277 53.3711 475.129 53.2773 476.098 53.2773H478.055ZM487.172 43V61H483.785V43H487.172ZM493.723 59.5703L497.086 48.3203H500.707L495.609 62.9102C495.5 63.2305 495.352 63.5742 495.164 63.9414C494.984 64.3086 494.738 64.6562 494.426 64.9844C494.121 65.3203 493.734 65.5938 493.266 65.8047C492.805 66.0156 492.238 66.1211 491.566 66.1211C491.246 66.1211 490.984 66.1016 490.781 66.0625C490.578 66.0234 490.336 65.9688 490.055 65.8984V63.4258C490.141 63.4258 490.23 63.4258 490.324 63.4258C490.418 63.4336 490.508 63.4375 490.594 63.4375C491.039 63.4375 491.402 63.3867 491.684 63.2852C491.965 63.1836 492.191 63.0273 492.363 62.8164C492.535 62.6133 492.672 62.3477 492.773 62.0195L493.723 59.5703ZM492.316 48.3203L495.07 57.5078L495.551 61.082L493.254 61.3281L488.695 48.3203H492.316ZM508.91 57.4961C508.91 57.2539 508.84 57.0352 508.699 56.8398C508.559 56.6445 508.297 56.4648 507.914 56.3008C507.539 56.1289 506.996 55.9727 506.285 55.832C505.645 55.6914 505.047 55.5156 504.492 55.3047C503.945 55.0859 503.469 54.8242 503.062 54.5195C502.664 54.2148 502.352 53.8555 502.125 53.4414C501.898 53.0195 501.785 52.5391 501.785 52C501.785 51.4688 501.898 50.9688 502.125 50.5C502.359 50.0312 502.691 49.6172 503.121 49.2578C503.559 48.8906 504.09 48.6055 504.715 48.4023C505.348 48.1914 506.059 48.0859 506.848 48.0859C507.949 48.0859 508.895 48.2617 509.684 48.6133C510.48 48.9648 511.09 49.4492 511.512 50.0664C511.941 50.6758 512.156 51.3711 512.156 52.1523H508.781C508.781 51.8242 508.711 51.5312 508.57 51.2734C508.438 51.0078 508.227 50.8008 507.938 50.6523C507.656 50.4961 507.289 50.418 506.836 50.418C506.461 50.418 506.137 50.4844 505.863 50.6172C505.59 50.7422 505.379 50.9141 505.23 51.1328C505.09 51.3438 505.02 51.5781 505.02 51.8359C505.02 52.0312 505.059 52.207 505.137 52.3633C505.223 52.5117 505.359 52.6484 505.547 52.7734C505.734 52.8984 505.977 53.0156 506.273 53.125C506.578 53.2266 506.953 53.3203 507.398 53.4062C508.312 53.5938 509.129 53.8398 509.848 54.1445C510.566 54.4414 511.137 54.8477 511.559 55.3633C511.98 55.8711 512.191 56.5391 512.191 57.3672C512.191 57.9297 512.066 58.4453 511.816 58.9141C511.566 59.3828 511.207 59.793 510.738 60.1445C510.27 60.4883 509.707 60.7578 509.051 60.9531C508.402 61.1406 507.672 61.2344 506.859 61.2344C505.68 61.2344 504.68 61.0234 503.859 60.6016C503.047 60.1797 502.43 59.6445 502.008 58.9961C501.594 58.3398 501.387 57.668 501.387 56.9805H504.586C504.602 57.4414 504.719 57.8125 504.938 58.0938C505.164 58.375 505.449 58.5781 505.793 58.7031C506.145 58.8281 506.523 58.8906 506.93 58.8906C507.367 58.8906 507.73 58.832 508.02 58.7148C508.309 58.5898 508.527 58.4258 508.676 58.2227C508.832 58.0117 508.91 57.7695 508.91 57.4961ZM517.945 48.3203V61H514.559V48.3203H517.945ZM514.348 45.0156C514.348 44.5234 514.52 44.1172 514.863 43.7969C515.207 43.4766 515.668 43.3164 516.246 43.3164C516.816 43.3164 517.273 43.4766 517.617 43.7969C517.969 44.1172 518.145 44.5234 518.145 45.0156C518.145 45.5078 517.969 45.9141 517.617 46.2344C517.273 46.5547 516.816 46.7148 516.246 46.7148C515.668 46.7148 515.207 46.5547 514.863 46.2344C514.52 45.9141 514.348 45.5078 514.348 45.0156ZM527.59 57.4961C527.59 57.2539 527.52 57.0352 527.379 56.8398C527.238 56.6445 526.977 56.4648 526.594 56.3008C526.219 56.1289 525.676 55.9727 524.965 55.832C524.324 55.6914 523.727 55.5156 523.172 55.3047C522.625 55.0859 522.148 54.8242 521.742 54.5195C521.344 54.2148 521.031 53.8555 520.805 53.4414C520.578 53.0195 520.465 52.5391 520.465 52C520.465 51.4688 520.578 50.9688 520.805 50.5C521.039 50.0312 521.371 49.6172 521.801 49.2578C522.238 48.8906 522.77 48.6055 523.395 48.4023C524.027 48.1914 524.738 48.0859 525.527 48.0859C526.629 48.0859 527.574 48.2617 528.363 48.6133C529.16 48.9648 529.77 49.4492 530.191 50.0664C530.621 50.6758 530.836 51.3711 530.836 52.1523H527.461C527.461 51.8242 527.391 51.5312 527.25 51.2734C527.117 51.0078 526.906 50.8008 526.617 50.6523C526.336 50.4961 525.969 50.418 525.516 50.418C525.141 50.418 524.816 50.4844 524.543 50.6172C524.27 50.7422 524.059 50.9141 523.91 51.1328C523.77 51.3438 523.699 51.5781 523.699 51.8359C523.699 52.0312 523.738 52.207 523.816 52.3633C523.902 52.5117 524.039 52.6484 524.227 52.7734C524.414 52.8984 524.656 53.0156 524.953 53.125C525.258 53.2266 525.633 53.3203 526.078 53.4062C526.992 53.5938 527.809 53.8398 528.527 54.1445C529.246 54.4414 529.816 54.8477 530.238 55.3633C530.66 55.8711 530.871 56.5391 530.871 57.3672C530.871 57.9297 530.746 58.4453 530.496 58.9141C530.246 59.3828 529.887 59.793 529.418 60.1445C528.949 60.4883 528.387 60.7578 527.73 60.9531C527.082 61.1406 526.352 61.2344 525.539 61.2344C524.359 61.2344 523.359 61.0234 522.539 60.6016C521.727 60.1797 521.109 59.6445 520.688 58.9961C520.273 58.3398 520.066 57.668 520.066 56.9805H523.266C523.281 57.4414 523.398 57.8125 523.617 58.0938C523.844 58.375 524.129 58.5781 524.473 58.7031C524.824 58.8281 525.203 58.8906 525.609 58.8906C526.047 58.8906 526.41 58.832 526.699 58.7148C526.988 58.5898 527.207 58.4258 527.355 58.2227C527.512 58.0117 527.59 57.7695 527.59 57.4961Z" fill="#888888"/>
<path d="M118.594 98.4219V104.75H101.086V98.4219H118.594ZM103.828 84.875V119H95.6016V84.875H103.828ZM124.125 84.875V119H115.922V84.875H124.125ZM127.992 106.578V106.086C127.992 104.227 128.258 102.516 128.789 100.953C129.32 99.375 130.102 98.0078 131.133 96.8516C132.164 95.6953 133.438 94.7969 134.953 94.1562C136.469 93.5 138.219 93.1719 140.203 93.1719C142.203 93.1719 143.961 93.5 145.477 94.1562C147.008 94.7969 148.289 95.6953 149.32 96.8516C150.352 98.0078 151.133 99.375 151.664 100.953C152.195 102.516 152.461 104.227 152.461 106.086V106.578C152.461 108.422 152.195 110.133 151.664 111.711C151.133 113.273 150.352 114.641 149.32 115.812C148.289 116.969 147.016 117.867 145.5 118.508C143.984 119.148 142.234 119.469 140.25 119.469C138.266 119.469 136.508 119.148 134.977 118.508C133.445 117.867 132.164 116.969 131.133 115.812C130.102 114.641 129.32 113.273 128.789 111.711C128.258 110.133 127.992 108.422 127.992 106.578ZM135.891 106.086V106.578C135.891 107.531 135.961 108.422 136.102 109.25C136.242 110.078 136.477 110.805 136.805 111.43C137.133 112.039 137.578 112.516 138.141 112.859C138.703 113.203 139.406 113.375 140.25 113.375C141.078 113.375 141.766 113.203 142.312 112.859C142.875 112.516 143.32 112.039 143.648 111.43C143.977 110.805 144.211 110.078 144.352 109.25C144.492 108.422 144.562 107.531 144.562 106.578V106.086C144.562 105.164 144.492 104.297 144.352 103.484C144.211 102.656 143.977 101.93 143.648 101.305C143.32 100.664 142.875 100.164 142.312 99.8047C141.75 99.4453 141.047 99.2656 140.203 99.2656C139.375 99.2656 138.68 99.4453 138.117 99.8047C137.57 100.164 137.133 100.664 136.805 101.305C136.477 101.93 136.242 102.656 136.102 103.484C135.961 104.297 135.891 105.164 135.891 106.086ZM163.688 111.453L168.375 93.6406H173.32L171.562 102.57L166.922 119H162.961L163.688 111.453ZM161.836 93.6406L164.742 111.312L165.07 119H160.266L154.266 93.6406H161.836ZM177.492 110.938L180.422 93.6406H187.992L182.039 119H177.234L177.492 110.938ZM173.883 93.6406L178.617 111.406L179.344 119H175.336L170.789 102.617L169.102 93.6406H173.883ZM218.297 84.875V119H210.07V84.875H218.297ZM228.562 84.875V91.2266H200.039V84.875H228.562ZM225.773 106.578V106.086C225.773 104.227 226.039 102.516 226.57 100.953C227.102 99.375 227.883 98.0078 228.914 96.8516C229.945 95.6953 231.219 94.7969 232.734 94.1562C234.25 93.5 236 93.1719 237.984 93.1719C239.984 93.1719 241.742 93.5 243.258 94.1562C244.789 94.7969 246.07 95.6953 247.102 96.8516C248.133 98.0078 248.914 99.375 249.445 100.953C249.977 102.516 250.242 104.227 250.242 106.086V106.578C250.242 108.422 249.977 110.133 249.445 111.711C248.914 113.273 248.133 114.641 247.102 115.812C246.07 116.969 244.797 117.867 243.281 118.508C241.766 119.148 240.016 119.469 238.031 119.469C236.047 119.469 234.289 119.148 232.758 118.508C231.227 117.867 229.945 116.969 228.914 115.812C227.883 114.641 227.102 113.273 226.57 111.711C226.039 110.133 225.773 108.422 225.773 106.578ZM233.672 106.086V106.578C233.672 107.531 233.742 108.422 233.883 109.25C234.023 110.078 234.258 110.805 234.586 111.43C234.914 112.039 235.359 112.516 235.922 112.859C236.484 113.203 237.188 113.375 238.031 113.375C238.859 113.375 239.547 113.203 240.094 112.859C240.656 112.516 241.102 112.039 241.43 111.43C241.758 110.805 241.992 110.078 242.133 109.25C242.273 108.422 242.344 107.531 242.344 106.578V106.086C242.344 105.164 242.273 104.297 242.133 103.484C241.992 102.656 241.758 101.93 241.43 101.305C241.102 100.664 240.656 100.164 240.094 99.8047C239.531 99.4453 238.828 99.2656 237.984 99.2656C237.156 99.2656 236.461 99.4453 235.898 99.8047C235.352 100.164 234.914 100.664 234.586 101.305C234.258 101.93 234.023 102.656 233.883 103.484C233.742 104.297 233.672 105.164 233.672 106.086ZM266.086 84.875H279.516C282.141 84.875 284.422 85.2656 286.359 86.0469C288.297 86.8281 289.789 87.9844 290.836 89.5156C291.898 91.0469 292.43 92.9375 292.43 95.1875C292.43 97.1406 292.125 98.7734 291.516 100.086C290.906 101.398 290.055 102.484 288.961 103.344C287.883 104.188 286.625 104.883 285.188 105.43L282.492 106.953H271.219L271.172 100.602H279.516C280.562 100.602 281.43 100.414 282.117 100.039C282.805 99.6641 283.32 99.1328 283.664 98.4453C284.023 97.7422 284.203 96.9062 284.203 95.9375C284.203 94.9531 284.023 94.1094 283.664 93.4062C283.305 92.7031 282.773 92.1641 282.07 91.7891C281.383 91.4141 280.531 91.2266 279.516 91.2266H274.312V119H266.086V84.875ZM284.766 119L277.219 103.906L285.938 103.859L293.578 118.648V119H284.766ZM311.836 112.836V93.6406H319.758V119H312.352L311.836 112.836ZM312.586 107.68L314.648 107.633C314.648 109.336 314.445 110.914 314.039 112.367C313.633 113.805 313.031 115.055 312.234 116.117C311.453 117.18 310.484 118.008 309.328 118.602C308.188 119.18 306.867 119.469 305.367 119.469C304.117 119.469 302.969 119.297 301.922 118.953C300.891 118.594 300 118.039 299.25 117.289C298.5 116.523 297.914 115.547 297.492 114.359C297.086 113.156 296.883 111.719 296.883 110.047V93.6406H304.781V110.094C304.781 110.656 304.852 111.141 304.992 111.547C305.133 111.953 305.336 112.297 305.602 112.578C305.867 112.844 306.195 113.047 306.586 113.188C306.992 113.312 307.453 113.375 307.969 113.375C309.156 113.375 310.086 113.125 310.758 112.625C311.43 112.125 311.898 111.445 312.164 110.586C312.445 109.727 312.586 108.758 312.586 107.68ZM331.875 99.0547V119H323.977V93.6406H331.383L331.875 99.0547ZM330.938 105.453L329.086 105.5C329.086 103.562 329.32 101.836 329.789 100.32C330.258 98.7891 330.922 97.4922 331.781 96.4297C332.641 95.3672 333.664 94.5625 334.852 94.0156C336.055 93.4531 337.391 93.1719 338.859 93.1719C340.031 93.1719 341.102 93.3438 342.07 93.6875C343.055 94.0312 343.898 94.5859 344.602 95.3516C345.32 96.1172 345.867 97.1328 346.242 98.3984C346.633 99.6484 346.828 101.195 346.828 103.039V119H338.883V103.016C338.883 102 338.742 101.227 338.461 100.695C338.18 100.148 337.773 99.7734 337.242 99.5703C336.711 99.3672 336.062 99.2656 335.297 99.2656C334.484 99.2656 333.797 99.4219 333.234 99.7344C332.672 100.047 332.219 100.484 331.875 101.047C331.547 101.594 331.305 102.242 331.148 102.992C331.008 103.742 330.938 104.562 330.938 105.453ZM363.773 108.195H357.047C357.047 106.82 357.141 105.609 357.328 104.562C357.531 103.5 357.875 102.547 358.359 101.703C358.844 100.859 359.5 100.078 360.328 99.3594C361.062 98.75 361.695 98.1641 362.227 97.6016C362.758 97.0391 363.164 96.4688 363.445 95.8906C363.727 95.3125 363.867 94.6953 363.867 94.0391C363.867 93.2266 363.75 92.5625 363.516 92.0469C363.297 91.5312 362.961 91.1484 362.508 90.8984C362.07 90.6328 361.516 90.5 360.844 90.5C360.297 90.5 359.781 90.6328 359.297 90.8984C358.828 91.1641 358.445 91.5781 358.148 92.1406C357.852 92.6875 357.688 93.4141 357.656 94.3203H349.711C349.758 91.9922 350.273 90.1016 351.258 88.6484C352.258 87.1797 353.586 86.1094 355.242 85.4375C356.914 84.75 358.781 84.4062 360.844 84.4062C363.125 84.4062 365.086 84.7578 366.727 85.4609C368.367 86.1641 369.625 87.2109 370.5 88.6016C371.375 89.9766 371.812 91.6719 371.812 93.6875C371.812 95.0312 371.555 96.2031 371.039 97.2031C370.539 98.1875 369.859 99.1094 369 99.9688C368.156 100.812 367.211 101.719 366.164 102.688C365.258 103.484 364.641 104.297 364.312 105.125C363.984 105.938 363.805 106.961 363.773 108.195ZM356.086 115.32C356.086 114.195 356.492 113.258 357.305 112.508C358.117 111.742 359.172 111.359 360.469 111.359C361.766 111.359 362.82 111.742 363.633 112.508C364.445 113.258 364.852 114.195 364.852 115.32C364.852 116.445 364.445 117.391 363.633 118.156C362.82 118.906 361.766 119.281 360.469 119.281C359.172 119.281 358.117 118.906 357.305 118.156C356.492 117.391 356.086 116.445 356.086 115.32Z" fill="black"/>
<path d="M1134 0H1348C1356.28 0 1363 6.71573 1363 15V148C1363 156.284 1356.28 163 1348 163H1134V0Z" fill="#007A85"/>
<path d="M1260.62 78.8078C1263.81 78.8078 1266.93 79.7552 1269.59 81.5302C1272.25 83.3052 1274.32 85.8281 1275.54 88.7798C1276.76 91.7315 1277.08 94.9795 1276.46 98.1131C1275.84 101.247 1274.3 104.125 1272.04 106.384C1269.78 108.643 1266.9 110.182 1263.77 110.805C1260.63 111.428 1257.39 111.108 1254.43 109.886C1251.48 108.663 1248.96 106.593 1247.18 103.936C1245.41 101.28 1244.46 98.1565 1244.46 94.9616C1244.46 90.6774 1246.16 86.5686 1249.19 83.5392C1252.22 80.5097 1256.33 78.8078 1260.62 78.8078ZM1260.62 73.4232C1256.36 73.4232 1252.19 74.6864 1248.65 77.0531C1245.11 79.4198 1242.35 82.7836 1240.72 86.7192C1239.09 90.6549 1238.66 94.9855 1239.49 99.1636C1240.32 103.342 1242.37 107.179 1245.39 110.192C1248.4 113.204 1252.24 115.255 1256.41 116.086C1260.59 116.917 1264.92 116.491 1268.86 114.861C1272.79 113.23 1276.16 110.47 1278.52 106.928C1280.89 103.386 1282.15 99.2215 1282.15 94.9616C1282.15 89.2493 1279.88 83.7709 1275.85 79.7317C1271.81 75.6924 1266.33 73.4232 1260.62 73.4232Z" fill="white"/>
<path d="M1274.08 46.4999H1220.23C1218.8 46.4999 1217.43 47.0672 1216.42 48.0771C1215.41 49.0869 1214.85 50.4565 1214.85 51.8845V105.731C1214.85 107.159 1215.41 108.528 1216.42 109.538C1217.43 110.548 1218.8 111.115 1220.23 111.115H1231V105.731H1220.23V68.0383H1279.46V51.8845C1279.46 50.4565 1278.89 49.0869 1277.88 48.0771C1276.87 47.0672 1275.5 46.4999 1274.08 46.4999ZM1220.23 62.6537V51.8845H1274.08V62.6537H1220.23Z" fill="white"/>
<path d="M1255.23 86.8848V103.039L1268.69 94.9617L1255.23 86.8848Z" fill="white"/>
</svg>
